<svg width="830" height="400" fill="none" xmlns="http://www.w3.org/2000/svg"><path d="M333.613 364.306c-7.229-1.228-12.343-4.501-15.617-10.093-1.704-2.932-1.841-3.682-1.841-10.979 0-7.57.068-8.047 2.319-12.616 2.728-5.592 7.365-10.434 12.275-12.889l3.478-1.773v-3.41c0-2.932-.205-3.409-1.501-3.75-.886-.137-5.046-1.091-9.274-2.114-4.228-.955-7.842-1.637-7.91-1.569-.137.137-1.228 4.91-2.455 10.502-5.865 27.346-10.639 37.371-20.254 42.485-7.638 4.024-10.161 4.365-28.028 4.092-18.276-.341-20.39-.818-25.573-5.319-4.433-3.887-6.206-8.456-6.206-15.685.069-12.411 6.888-22.981 17.595-26.937l3.341-1.295-.409-7.843c-.614-11.184-3.001-24.822-6.615-38.257-3.478-12.547-3.273-12.275-7.979-13.98-8.797-3.136-15.139-8.728-18.821-16.571-2.114-4.364-2.183-4.91-2.183-13.093 0-8.047-.136-8.729-2.045-12.616-1.773-3.614-1.978-4.842-1.978-10.025 0-5.66-.068-5.932-1.773-6.683-3.887-1.773-15.48-10.024-19.845-14.184-3.273-3.069-5.387-5.728-6.887-8.934-2.251-4.5-2.251-4.5-2.182-14.729.068-11.389 1.5-21.073 5.114-34.234l2.114-7.706-4.433-4.228c-10.57-10.297-16.844-25.232-15.957-38.325.887-13.707 7.774-25.641 18.481-32.052 8.456-5.046 17.867-6.683 27.005-4.569 5.523 1.296 15.343 6.274 20.731 10.639 2.591 2.046 4.978 3.75 5.251 3.75.204 0 2.591-.818 5.114-1.773 15.89-6.069 33.961-8.32 51.078-6.41 10.638 1.228 18.617 3.205 29.119 7.297l3.205 1.227 2.25-2.114c7.57-7.024 17.458-11.865 27.21-13.23 16.98-2.454 34.438 9.752 39.757 27.824 4.501 15.48-1.023 34.097-14.184 47.531l-4.433 4.501.955 3.205c.545 1.773 1.636 6.138 2.387 9.684.818 3.546 1.568 6.547 1.704 6.751.614.546 10.707-8.32 24.005-21.208 15.889-15.412 25.164-22.709 35.12-27.619 17.117-8.524 33.279-10.98 57.488-8.797 15.207 1.364 19.708 1.364 27.141.068 13.503-2.318 24.823-8.456 36.348-19.572 3.409-3.273 7.296-6.41 8.66-7.024 6.956-2.864 14.253.682 16.162 7.91.819 3.002 0 14.663-1.704 23.46-.478 2.66-.682 4.978-.478 5.25.614.614 11.934 2.592 15.071 2.592 7.297.068 13.093 6.615 12.139 13.775-.546 3.819-3.137 7.297-12.275 16.367-7.024 6.956-8.047 8.252-7.706 9.684l.409 1.704 4.296-1.977c11.934-5.388 22.641-5.933 34.711-1.705 14.935 5.115 25.709 19.708 24.209 32.529-.545 4.569-3.546 10.843-6.478 13.707-1.364 1.364-4.297 3.273-6.547 4.296-3.546 1.568-4.569 1.773-9.547 1.5-6.479-.341-10.093-1.773-15.071-5.933-6.615-5.455-9.206-3.546-17.526 13.571-9.002 18.549-15.889 27.619-26.187 34.575-10.638 7.228-25.3 11.797-37.984 11.797-3.478 0-3.955.137-3.614 1.228.204.613.818 3.478 1.432 6.273 3.955 19.163 8.115 27.892 15.207 32.12 7.092 4.228 8.797 7.297 13.775 24.891 8.661 30.619 9.07 44.804 1.569 54.624-4.024 5.319-7.774 7.774-14.185 9.479-8.183 2.182-27.823 1.773-35.188-.751-14.389-4.91-17.185-24.345-5.455-37.37 1.568-1.773 2.114-2.796 1.636-3.273-.613-.614-18.958-7.911-20.867-8.32-.341-.068-1.637 3.887-2.864 8.729-3.342 13.093-8.32 25.436-12.48 30.824-.886 1.227-3.478 3.478-5.66 4.91-5.251 3.478-11.116 4.841-21.208 4.841-15.412 0-23.528-1.977-28.437-6.887-5.729-5.66-6.684-16.162-2.387-25.096 2.182-4.432 7.637-10.161 11.388-11.934l2.66-1.227-5.115-3.274c-2.728-1.841-6.546-4.705-8.456-6.41-1.909-1.773-3.887-3.137-4.364-3.137-1.16 0-17.663 4.569-18.14 4.978-.136.205-3.069 9.479-6.41 20.663-6.411 21.209-7.979 24.823-12.616 28.915-2.933 2.523-7.638 4.978-12.48 6.41-2.932.887-6.615 1.091-17.048 1.023-7.365-.068-15.003-.341-17.049-.682z" fill="#211E1E"/><path d="M333.613 364.306c-7.229-1.228-12.343-4.501-15.617-10.093-1.704-2.932-1.841-3.682-1.841-10.979 0-7.57.068-8.047 2.319-12.616 2.728-5.592 7.365-10.434 12.275-12.889l3.478-1.773v-3.41c0-2.932-.205-3.409-1.501-3.75-.886-.137-5.046-1.091-9.274-2.114-4.228-.955-7.842-1.637-7.91-1.569-.137.137-1.228 4.91-2.455 10.502-5.865 27.346-10.639 37.371-20.254 42.485-7.638 4.024-10.161 4.365-28.028 4.092-18.276-.341-20.39-.818-25.573-5.319-4.433-3.887-6.206-8.456-6.206-15.685.069-12.411 6.888-22.981 17.595-26.937l3.341-1.295-.409-7.843c-.614-11.184-3.001-24.822-6.615-38.257-3.478-12.547-3.273-12.275-7.979-13.98-8.797-3.136-15.139-8.728-18.821-16.571-2.114-4.364-2.183-4.91-2.183-13.093 0-8.047-.136-8.729-2.045-12.616-1.773-3.614-1.978-4.842-1.978-10.025 0-5.66-.068-5.932-1.773-6.683-3.887-1.773-15.48-10.024-19.845-14.184-3.273-3.069-5.387-5.728-6.887-8.934-2.251-4.5-2.251-4.5-2.182-14.729.068-11.389 1.5-21.073 5.114-34.234l2.114-7.706-4.433-4.228c-10.57-10.297-16.844-25.232-15.957-38.325.887-13.707 7.774-25.641 18.481-32.052 8.456-5.046 17.867-6.683 27.005-4.569 5.523 1.296 15.343 6.274 20.731 10.639 2.591 2.046 4.978 3.75 5.251 3.75.204 0 2.591-.818 5.114-1.773 15.89-6.069 33.961-8.32 51.078-6.41 10.638 1.228 18.617 3.205 29.119 7.297l3.205 1.227 2.25-2.114c7.57-7.024 17.458-11.865 27.21-13.23 16.98-2.454 34.438 9.752 39.757 27.824 4.501 15.48-1.023 34.097-14.184 47.531l-4.433 4.501.955 3.205c.545 1.773 1.636 6.138 2.387 9.684.818 3.546 1.568 6.547 1.704 6.751.614.546 10.707-8.32 24.005-21.208 15.889-15.412 25.164-22.709 35.12-27.619 17.117-8.524 33.279-10.98 57.488-8.797 15.207 1.364 19.708 1.364 27.141.068 13.503-2.318 24.823-8.456 36.348-19.572 3.409-3.273 7.296-6.41 8.66-7.024 6.956-2.864 14.253.682 16.162 7.91.819 3.002 0 14.663-1.704 23.46-.478 2.66-.682 4.978-.478 5.25.614.614 11.934 2.592 15.071 2.592 7.297.068 13.093 6.615 12.139 13.775-.546 3.819-3.137 7.297-12.275 16.367-7.024 6.956-8.047 8.252-7.706 9.684l.409 1.704 4.296-1.977c11.934-5.388 22.641-5.933 34.711-1.705 14.935 5.115 25.709 19.708 24.209 32.529-.545 4.569-3.546 10.843-6.478 13.707-1.364 1.364-4.297 3.273-6.547 4.296-3.546 1.568-4.569 1.773-9.547 1.5-6.479-.341-10.093-1.773-15.071-5.933-6.615-5.455-9.206-3.546-17.526 13.571-9.002 18.549-15.889 27.619-26.187 34.575-10.638 7.228-25.3 11.797-37.984 11.797-3.478 0-3.955.137-3.614 1.228.204.613.818 3.478 1.432 6.273 3.955 19.163 8.115 27.892 15.207 32.12 7.092 4.228 8.797 7.297 13.775 24.891 8.661 30.619 9.07 44.804 1.569 54.624-4.024 5.319-7.774 7.774-14.185 9.479-8.183 2.182-27.823 1.773-35.188-.751-14.389-4.91-17.185-24.345-5.455-37.37 1.568-1.773 2.114-2.796 1.636-3.273-.613-.614-18.958-7.911-20.867-8.32-.341-.068-1.637 3.887-2.864 8.729-3.342 13.093-8.32 25.436-12.48 30.824-.886 1.227-3.478 3.478-5.66 4.91-5.251 3.478-11.116 4.841-21.208 4.841-15.412 0-23.528-1.977-28.437-6.887-5.729-5.66-6.684-16.162-2.387-25.096 2.182-4.432 7.637-10.161 11.388-11.934l2.66-1.227-5.115-3.274c-2.728-1.841-6.546-4.705-8.456-6.41-1.909-1.773-3.887-3.137-4.364-3.137-1.16 0-17.663 4.569-18.14 4.978-.136.205-3.069 9.479-6.41 20.663-6.411 21.209-7.979 24.823-12.616 28.915-2.933 2.523-7.638 4.978-12.48 6.41-2.932.887-6.615 1.091-17.048 1.023-7.365-.068-15.003-.341-17.049-.682zm35.393-10.775c3.887-2.046 6.615-4.569 8.183-7.569 1.091-2.114 6.683-20.39 12.071-39.212l1.977-6.819 8.456-2.115c4.706-1.227 11.389-3.068 14.867-4.228l6.274-2.045 3.955 4.091c2.114 2.319 6.683 5.933 10.024 8.115 13.503 8.729 13.366 8.525 11.866 15.071l-.955 4.228-3.614.819c-7.638 1.705-13.093 7.842-13.639 15.343-.409 5.251.682 7.843 4.024 9.479 3.409 1.774 14.116 3.001 22.708 2.592 13.23-.614 17.322-4.228 23.05-20.527 3.001-8.524 6.683-22.845 6.683-26.05 0-1.091-.818-3.751-1.773-5.796-3.41-7.161-3.478-7.093 2.864-3.001 7.365 4.842 15.344 8.593 24.891 11.661 4.16 1.364 8.525 3.137 9.684 3.887 2.25 1.501 7.297 10.298 7.297 12.616 0 .75-1.023 1.705-2.728 2.455-3.205 1.432-7.229 5.592-8.593 8.934-2.455 5.796-.545 12.616 4.297 15.412 4.432 2.591 23.731 3.341 31.846 1.227 4.501-1.227 8.661-5.319 10.298-10.229 2.386-7.16.204-22.981-6.138-44.326-3.41-11.525-4.569-13.98-7.91-16.162-8.388-5.592-13.025-12.003-16.503-22.777-1.364-4.024-6.001-23.391-8.456-35.12-.341-1.364-.137-1.432 2.659-.887 4.706.887 16.912.682 23.323-.409 11.524-2.046 21.481-7.024 29.05-14.594 6.07-6.069 8.934-10.433 16.299-25.163 7.501-14.867 11.525-19.913 17.321-21.618 2.046-.614 4.501-.886 5.933-.614 2.864.478 7.297 2.933 9.206 5.047 6.001 6.615 17.049 5.319 20.8-2.455 2.591-5.319 1.091-12.753-3.751-18.549-2.66-3.137-9.275-7.297-14.457-9.07-5.319-1.773-14.798-2.114-19.981-.682-5.66 1.637-12.889 5.66-17.253 9.684-6.002 5.455-10.298 11.934-17.049 25.845-3.41 7.093-7.229 13.776-9.343 16.503-10.57 13.639-29.937 17.799-50.804 10.98-7.161-2.319-8.593-3.069-13.912-7.502-8.456-7.024-18.89-10.774-32.051-11.525-4.297-.272-14.662 0-25.641.682-10.093.682-21.959 1.092-26.255.955-7.57-.204-7.774-.273-5.456-1.159 1.296-.546 5.319-2.455 8.865-4.228 6.206-3.137 9.207-4.978 31.302-19.981 10.433-7.024 18.003-10.979 25.436-13.23 8.32-2.591 14.594-3.069 34.643-2.523 24.141.545 33.892-.477 47.395-4.842 14.457-4.705 27.005-12.479 38.393-23.868 10.161-10.229 10.161-11.115-.341-12.411-3.409-.478-8.797-1.569-11.934-2.455-8.66-2.523-9.547-2.933-9.138-4.365 1.16-3.682 3.274-19.844 3.342-25.709.204-9.002-.478-9.138-7.911-1.841-13.298 12.82-26.732 19.913-42.553 22.3-8.592 1.295-12.548 1.295-29.46-.137-16.094-1.296-24.891-.818-36.552 2.182-8.661 2.182-19.981 7.706-27.687 13.571-3.273 2.455-13.093 11.32-21.89 19.64-8.729 8.388-17.458 16.503-19.299 18.003-3.342 2.796-15.958 11.184-16.708 11.184-.273 0-.818-2.864-1.296-6.274-.886-7.092-4.705-23.322-6.819-29.46-1.364-3.887-1.364-4.091-.205-4.91 11.116-7.774 18.004-17.662 20.39-29.255 3.478-17.049-7.228-33.893-23.186-36.484-9.274-1.5-20.594 3.205-31.096 12.752-2.592 2.387-5.047 4.297-5.388 4.297-.341 0-1.977-.75-3.614-1.637-3.887-2.182-15.753-6.138-23.118-7.706-8.183-1.705-29.323-1.705-37.507 0-7.501 1.636-19.367 5.524-22.981 7.706-3.478 2.046-4.433 2.046-6.069.136-3.069-3.478-12.003-9.82-17.322-12.411-5.66-2.728-6.001-2.796-12.957-2.796-6.342 0-7.569.204-11.115 1.841-14.117 6.615-20.254 24.618-14.048 41.121 2.864 7.774 10.502 17.049 18.207 22.163l1.501 1.023-1.773 5.456c-4.228 13.298-6.82 26.732-7.57 39.348-.545 9.615.273 11.866 6.615 17.799 6.001 5.66 11.32 9.274 20.526 13.911l7.365 3.683-1.704 3.137c-3.001 5.66-2.046 11.934 2.455 16.912 1.227 1.296 1.227 1.705.272 6.478-1.841 9.684-.818 14.662 4.024 20.186 2.932 3.341 9.138 6.683 15.616 8.456 3.751 1.023 3.887 1.228 7.706 15.276 4.978 18.412 7.843 37.029 7.843 51.145v9.07l-3.751.409c-7.433.75-14.116 6.274-16.094 13.366-.477 1.637-.818 4.774-.818 7.024.068 4.842 1.364 7.024 5.387 9.07 2.387 1.228 4.296 1.364 17.526 1.569 12.548.204 15.412.068 18.413-.887 7.228-2.318 11.047-6.819 14.184-16.639 2.796-8.661 7.092-26.664 8.456-35.188.614-3.751 1.228-6.956 1.432-7.093.137-.136 2.932.546 6.206 1.501 7.501 2.25 13.639 3.682 22.368 5.182l6.819 1.16v23.049l-2.864.546c-9.547 1.568-15.685 9.888-15.071 20.322.477 9.274 4.569 10.911 27.141 10.706 12.548-.136 13.503-.204 16.367-1.773z" fill="#A42421"/><path d="M338.114 350.258c-.955-.887-.409-7.911.886-11.593l1.296-3.819-1.364 1.296c-2.25 1.977-3.955 5.933-4.432 10.092l-.478 3.751-1.841-.955c-2.387-1.227-3.001-4.296-1.978-9.206 1.432-6.615 7.843-11.593 14.935-11.593h2.523l.477-3.546c.751-6.342.41-21.822-.545-28.505-1.228-8.047-4.365-17.594-7.911-24.482-4.91-9.274-5.728-9.479-2.796-.75 4.228 12.411 7.024 24.55 5.66 24.55-1.977 0-17.048-2.932-22.435-4.433-21.004-5.592-41.394-16.912-52.101-28.778-3.41-3.819-10.161-12.82-10.161-13.57 0-.41 2.182-.341 5.66.136 18.208 2.796 44.531-.341 62.398-7.297 27.687-10.911 48.282-31.574 54.283-54.555.75-2.864 1.227-3.683 2.182-3.546 20.663 1.909 39.348 2.045 63.216.477 19.367-1.296 28.71-1.023 36.279 1.023 7.502 2.046 7.57 2.114 5.865 4.91-1.841 3-1.909 8.729-.136 12.548 1.636 3.682 6.887 8.183 11.115 9.615 4.297 1.432 9.479 1.023 12.139-1.023l2.046-1.432 1.977 3.955c2.933 5.729 4.365 10.707 7.911 26.528 1.773 7.842 4.092 16.98 5.183 20.322 3.682 11.388 8.933 18.958 16.776 23.936 4.364 2.864 5.114 4.637 10.229 24.823 3 11.934 3.819 16.094 4.091 22.163.273 6.888.205 7.774-1.295 10.57-2.251 4.364-4.978 5.933-11.321 6.547-6.41.545-19.435-.069-22.504-1.16-2.727-.954-3.546-2.386-3.546-6.069 0-5.66 4.569-10.775 10.775-12.002 1.773-.341 2.182-.75 2.182-2.251-.068-4.978-6.137-17.116-9.888-19.571-.955-.614-5.933-2.592-11.116-4.297-16.571-5.728-27.277-12.275-38.529-23.731-6.82-6.888-15.685-18.413-18.686-24.277-.886-1.842-1.841-3.137-2.046-2.933-.818.75 5.661 15.208 8.729 19.572 1.16 1.637 1.16 1.909.205 2.25-.614.205-1.91.41-2.932.41-3.615 0-13.571 3-30.961 9.342-16.162 5.865-25.777 8.797-32.801 10.025-2.592.477-2.592.477-2.114-1.432 1.773-6.683 3.751-18.208 3.751-21.686 0-5.115-1.501-12.275-3.342-16.162-.818-1.637-1.296-2.182-1.091-1.228.955 4.501 1.159 15.208.409 20.39-1.637 11.253-18.344 67.99-21.004 71.605-2.796 3.614-7.638 5.523-14.252 5.523-3.819 0-5.661-.273-5.933-.818-.546-1.432.682-8.388 1.841-10.638 1.568-3.001 1.364-3.342-.682-1.432-2.387 2.25-4.296 6.137-4.842 9.82l-.409 3.068h-4.569c-2.523 0-4.774-.204-4.978-.477zm20.049-33.211c.955-2.046.341-4.91-1.159-5.455-2.728-1.023-5.251 2.796-3.683 5.66 1.023 2.046 3.887 1.909 4.842-.205zm16.367-6.41c1.568-4.023-2.728-6.888-5.115-3.41-1.5 2.114-1.364 4.365.409 5.592 1.841 1.296 3.751.409 4.706-2.182zm-9.752-10.502c3.887-4.228 1.295-11.32-3.478-9.479-3.205 1.228-4.024 6.82-1.364 9.82 1.5 1.569 3.069 1.5 4.842-.341zm156.165-3.137c.273-1.909-2.728-4.91-4.842-4.91-4.023 0-4.364 5.047-.477 6.956 1.977 1.023 2.523 1.091 3.75.273.75-.478 1.432-1.569 1.569-2.319zm17.458 2.182c1.363-1.295 1.363-2.523.068-5.046-1.16-2.319-3.137-3.069-5.115-2.046-1.977 1.023-1.773 4.365.341 6.479 1.91 1.977 3.205 2.114 4.706.613zm-158.484-8.797c6.478-3.341 6.137-15.343-.409-15.343-4.024 0-6.41 3.546-6.41 9.615 0 2.728.34 3.751 1.704 5.046 1.91 1.978 2.455 2.046 5.115.682zm118.931-6.751c6.274-2.591 3.955-12.207-3.887-16.026-6.479-3.137-12.002-.886-12.071 4.91 0 4.569 3.615 9.275 8.593 11.048 3.41 1.227 4.569 1.227 7.365.068zm24.55-1.159c1.432-1.16 1.773-1.978 1.773-4.501 0-2.796-.341-3.478-3.001-6.069-3.273-3.274-5.728-3.819-8.456-1.91-3.478 2.387-1.091 10.161 3.955 12.684 3.001 1.569 3.547 1.501 5.729-.204zm-165.167-4.501c3.683-3.887 4.296-9.07 1.5-12.411-4.91-5.865-11.797 1.091-9.82 9.82 1.092 4.705 5.115 5.932 8.32 2.591zm21.959-17.321c2.25-2.592 2.727-4.569 2.318-8.934-.818-8.388-9.138-8.933-11.388-.818-.955 3.341-.955 5.114 0 7.569 1.841 4.842 6.001 5.865 9.07 2.183zm136.116-5.251c2.455-2.455 3.068-5.729 2.045-10.639-1.432-6.819-7.16-13.366-11.729-13.366-7.638 0-7.706 15.617-.068 22.573 4.228 3.887 6.887 4.296 9.752 1.432zm-34.575-1.501c4.569-3.614 2.046-14.73-4.842-21.481-5.114-5.046-11.047-5.66-13.025-1.296-2.932 6.547 1.773 17.936 9.138 22.164 4.024 2.318 6.342 2.455 8.729.613zm-70.036-4.773c1.364 0 4.365-3.342 4.365-4.842 0-.887-.682-2.25-1.5-3.137-1.978-2.046-6.411-2.182-9.002-.136-3.887 3.068-.887 9.479 4.023 8.456.751-.205 1.705-.341 2.114-.341zm-50.6-1.91c3.819-3.478 4.297-12.275.819-14.593-1.705-1.16-4.979-.546-6.683 1.364-2.592 2.727-3.274 4.432-3.274 7.978 0 2.592.341 3.546 2.046 5.251 1.705 1.637 2.455 1.978 3.955 1.569 1.023-.205 2.387-.955 3.137-1.569zm85.243-7.706c2.182-1.705 2.319-4.228.273-5.66-4.433-3.137-11.116 1.978-7.433 5.66 1.841 1.842 4.842 1.842 7.16 0zm46.372-8.524c3.001-3.001 1.228-9.82-3.137-12.139-2.318-1.295-2.523-1.295-4.228-.204-2.182 1.5-2.864 3.955-1.841 7.297 1.5 5.046 6.479 7.774 9.206 5.046zm-97.722-2.455c12.82-7.16-2.523-25.914-16.162-19.708-6.956 3.137-8.388 10.093-3.205 15.821 5.455 6.001 12.957 7.501 19.367 3.887zm33.892.75c5.524-2.728 7.161-7.979 3.615-11.593-3.819-3.751-12.139-2.25-15.549 2.796-4.91 7.161 3.137 13.025 11.934 8.797zm39.826-17.867c3.069-1.773 5.319-5.114 5.319-7.774-.068-4.842-5.455-10.297-12.207-12.207-7.842-2.318-18.89.41-21.958 5.456-5.183 8.524 4.842 17.048 19.503 16.571 5.319-.136 6.683-.477 9.343-2.046zm-49.441-6.546c3.205-1.501 4.296-3.069 4.296-6.411 0-3.409-2.523-6.683-6.819-8.865-3.342-1.705-4.296-1.909-8.524-1.637-5.729.341-8.866 1.773-10.366 4.842-3.955 8.32 11.048 16.708 21.413 12.071z" fill="#A42421"/><path d="M267.533 347.462c-.682-1.773.682-8.047 2.386-10.911l1.705-3.001-1.636 1.091c-2.796 1.842-4.774 5.183-5.524 9.343l-.818 4.092-4.433-.205-4.433-.204-.204-3.819c-.137-2.114.204-5.047.75-6.479.545-1.432 1.227-3.273 1.432-4.023.341-.819-.409-.341-1.909 1.227-2.319 2.592-3.819 6.956-3.819 11.048 0 1.568-.137 1.636-1.705.886-3.819-1.773-2.728-10.979 1.977-16.094 2.387-2.727 5.251-3.818 10.98-4.159l5.455-.41.068-13.229.069-13.23 1.704-.887c1.569-.818 2.251-2.045 3.547-6.001 1.159-3.546-2.592-9.274-6.138-9.274-1.364 0-1.637-.546-2.318-3.887-1.023-5.047-3.342-15.207-3.819-16.776-.205-.682 1.773.955 4.432 3.546 7.638 7.57 17.253 14.321 28.028 19.777 11.389 5.728 10.434 3.75 8.115 17.116-2.455 14.253-8.319 34.643-11.115 38.871-2.728 4.092-7.434 6.001-15.685 6.274-5.047.136-6.82 0-7.092-.682zm23.459-29.392c1.091-2.114.204-4.432-1.842-4.705-2.864-.478-4.432 3.478-2.25 5.66 1.5 1.432 3.137 1.091 4.092-.955zm-14.799-1.705c1.16-1.364.682-4.569-.75-5.455-2.591-1.569-4.91 1.977-3.273 4.978.818 1.637 2.864 1.841 4.023.477zm11.662-12.684c2.114-2.114 2.455-4.705.954-7.433-.886-1.705-1.841-2.523-3.137-2.66-4.364-.545-6.41 6.343-2.932 9.752 1.978 2.046 3.342 2.114 5.115.341zm154.119 42.553c-.955-.136-3.001-.477-4.637-.681-4.092-.546-5.388-2.524-4.229-6.956 1.433-5.865 5.661-9.616 11.934-10.707 1.501-.273 3.137-.818 3.615-1.227 1.295-1.023 3-7.57 3-11.73.069-4.569-1.091-6.41-5.796-9.479-1.978-1.227-5.592-3.546-8.047-5.114-4.637-2.933-11.525-9.002-11.525-10.161 0-.409.818-1.023 1.909-1.364 1.023-.409 5.524-2.114 10.025-3.887 9.684-3.751 20.458-6.479 25.368-6.479 3.478 0 3.546.069 7.161 4.297 2.864 3.273 3.887 5.046 4.501 7.842.477 2.046 1.773 5.865 2.932 8.524l2.182 4.91-1.227 6.41c-1.569 8.184-7.775 26.528-10.23 30.074-3.136 4.501-6.683 5.797-16.707 5.933-4.706 0-9.275-.068-10.229-.205zm-179.01-102.291c-18.754-2.932-27.551-7.229-30.074-14.73-.955-2.864-.955-4.092-.205-9.411.41-3.409 1.091-6.137 1.432-6.137.341 0 2.114.75 3.956 1.705 3.955 2.045 14.389 5.114 16.98 5.046 1.159 0-.204-.682-3.682-1.909-14.117-4.91-22.845-11.73-22.845-17.731 0-3.342 2.591-8.456 4.023-7.979.614.137 5.115 1.773 9.956 3.478 4.91 1.773 11.184 3.819 13.98 4.569 2.796.75 6.069 2.046 7.161 2.933 6.478 4.841 13.638 6.751 23.868 6.342 8.456-.41 12.888-1.637 18.889-5.524 2.387-1.5 7.161-3.41 13.23-5.183 15.48-4.705 31.71-11.593 41.053-17.526 1.91-1.296 3.546-1.977 3.546-1.636 0 2.25-7.91 15.411-10.843 18.003-2.114 1.909-1.773 2.796.546 1.159 3.478-2.523 9.956-9.547 12.275-13.366 1.227-2.046 2.932-5.592 3.682-7.979 1.705-4.91 2.796-5.387 5.047-1.977 2.114 3.137 1.977 6.342-.478 13.093-4.705 12.957-13.298 24.618-25.232 34.097-4.841 3.887-16.775 10.57-23.731 13.23-7.979 3.069-19.64 6.069-28.915 7.433-8.797 1.364-25.095 1.296-33.619 0zm262.343-26.323l-3.614-.682-2.796-5.524c-1.5-3.068-3.546-6.546-4.433-7.774-.954-1.227-1.636-2.25-1.5-2.25.136 0 2.114.613 4.364 1.295 2.251.682 6.411 1.637 9.207 2.114 4.091.682 5.455 1.228 6.887 2.796 1.501 1.569 2.455 1.978 4.706 1.978 2.455 0 3.273-.409 5.319-2.523 1.841-1.978 3.546-2.864 7.297-3.955 2.727-.819 6.751-2.524 8.865-3.819 3.751-2.251 11.593-9.752 13.093-12.548.75-1.296.819-1.296 2.046-.136 1.978 1.704 6.41 1.568 8.183-.341 1.842-2.114 2.933-4.228 2.933-6.001 0-2.455-1.91-5.251-4.092-6.002l-2.046-.75 2.251-4.637c4.364-9.07 4.501-9.138 5.933-8.388 4.296 2.319 9.41-.955 10.024-6.342.273-2.25.068-3.682-.75-4.842-1.023-1.636-1.023-1.705 1.568-3.75 2.933-2.319 8.32-5.183 11.184-5.865 1.637-.409 1.842-.273 1.842 1.227 0 .955.818 2.66 1.773 3.819 1.432 1.705 2.25 2.114 4.5 2.114 3.478 0 6.684-2.932 6.684-6.137 0-2.046.068-2.114 2.25-1.705 1.159.273 3.546 1.091 5.251 1.909 2.659 1.296 3.069 1.773 2.932 3.41-.204 2.796-2.591 7.433-5.592 10.775l-2.523 2.932-3-1.227c-3.683-1.432-9.957-1.501-14.935-.137-1.978.546-3.682 1.091-3.751 1.228-.068.136-1.364 1.773-2.864 3.614-4.228 5.183-7.024 9.888-12.548 21.072-5.046 10.297-11.183 19.435-15.139 22.504l-2.182 1.705-1.978-1.705c-2.796-2.387-5.932-2.182-9.001.546-2.319 1.977-2.455 2.387-2.319 5.524.205 3.818.341 3.75-6.819 5.591-3.546.955-3.683.955-5.66-.681-2.865-2.455-6.206-2.319-8.866.341-1.773 1.773-2.455 2.045-5.523 1.977-1.978-.068-5.183-.409-7.161-.75z" fill="#A42421"/><path d="M276.057 204.799c-3.137-.818-7.297-2.864-10.843-5.455-1.432-1.091-3.682-2.182-4.842-2.387-3.75-.818-18.958-5.865-25.914-8.592-18.958-7.57-35.802-19.163-37.029-25.573-.273-1.364-.273-5.388 0-8.865 1.296-18.754 8.115-43.508 16.776-60.693 4.228-8.525 4.228-8.456-1.16-8.456-3.068 0-3.068 0-2.114-1.569.887-1.296 2.728-2.25 7.365-3.683.614-.204-.341-1.022-2.659-2.182l-3.683-1.91 1.637-1.09c1.978-1.432 7.433-1.5 11.729-.205l3.206.955-1.364-1.91c-2.524-3.546-9.138-8.865-14.048-11.32-20.731-10.365-28.369 15.685-10.093 34.438l4.296 4.365-1.364 2.659c-.75 1.432-1.5 2.592-1.773 2.592-1.091 0-8.183-6.138-10.911-9.48-4.774-5.864-7.16-11.251-8.388-18.753-1.705-10.91 3.819-22.3 13.094-26.937 7.637-3.818 16.503-2.59 25.777 3.615 5.66 3.75 12.957 9.956 12.957 10.98 0 .408-.75 1.5-1.705 2.386-.955.886-1.568 1.705-1.5 1.841.136.068 3.478-1.432 7.365-3.478 10.706-5.592 22.436-9.206 34.915-10.91l2.523-.342v5.456c0 3.478.341 6.137 1.023 7.433 2.251 4.364 6.956 5.455 10.025 2.25 2.523-2.66 3.273-5.046 3.273-10.433V54.84l2.592.341c13.57 1.91 20.867 4.092 33.483 10.161l9.07 4.433-1.841-2.387-1.842-2.455 3.274-2.864c5.592-4.978 10.706-8.593 15.275-10.911 3.955-1.978 4.978-2.183 10.57-2.183 5.115 0 6.683.273 9.548 1.637 15.343 7.57 18.071 28.846 5.66 44.94-3.069 3.955-10.57 10.57-11.662 10.161-.341-.068-1.295-1.296-2.045-2.591l-1.364-2.387 3.478-3.273c6.887-6.479 11.047-15.344 11.047-23.664 0-2.591-.409-5.728-.886-6.956-1.364-3.137-5.933-7.024-8.934-7.57-5.66-1.09-14.798 3.615-21.89 11.253-2.114 2.319-3.683 4.296-3.615 4.432.137.137 1.774-.204 3.615-.75 5.455-1.704 11.934-1.09 11.934 1.092 0 .34-1.637 1.363-3.546 2.25-3.683 1.636-3.615 1.91.341 2.728 1.023.272 2.864 1.364 4.091 2.455l2.183 1.977-2.115.069c-1.159 0-3.136.204-4.296.409l-2.114.477 2.319 4.16c9.956 18.003 18.821 50.123 18.821 68.535 0 5.047-.136 5.524-2.318 8.388-2.592 3.41-9.752 9.002-16.981 13.298-8.524 5.115-27.618 12.684-40.302 16.026-3.478.886-6.888 2.318-9.275 3.955-6.274 4.228-8.933 4.978-18.071 5.183-4.501.136-9.343-.069-10.775-.41zm2.25-19.844c1.705-.75 4.024-2.319 5.183-3.41l2.114-2.046 2.319 2.183c6.751 6.342 17.117 6.41 23.39.204 2.592-2.591 4.501-6.819 4.501-10.161v-2.728l-1.636 3.41c-5.115 10.775-17.185 13.162-24.141 4.706-1.773-2.114-2.182-3.274-2.182-5.797v-3.137l5.046-2.523c5.592-2.864 12.139-8.32 13.775-11.525 1.501-2.864.955-7.024-2.182-14.866-3.001-7.57-3.955-9.07-2.66-3.956.955 3.478 2.455 15.071 2.114 15.481-.136.068-1.363-.341-2.864-1.023-5.251-2.251-30.551-1.842-32.051.545-.205.341-.614.614-1.023.614-1.159 0-.545-6.615 1.705-17.39.682-3.068-1.978 2.865-4.024 9.138-2.182 6.479-2.182 10.093-.136 13.094 2.114 3.137 7.365 7.092 13.366 10.024l4.978 2.387-.477 3.478c-.546 4.296-2.728 7.297-6.683 9.206-7.706 3.751-16.503-.341-20.39-9.547l-1.296-3 .409 3.682c.682 6.206 4.092 11.047 9.548 13.434 3.136 1.364 9.751 1.16 13.297-.477zm-56.737-10.297c1.5-1.501.954-4.638-1.16-6.752-3.75-3.75-9.001-2.114-7.842 2.455.955 3.683 6.82 6.479 9.002 4.297zm133.865-.341c2.251-1.364 3.683-4.297 3.001-6.274-.955-3.137-6.615-2.319-8.729 1.227-1.432 2.455-1.432 3.751-.068 5.115 1.364 1.432 3.341 1.364 5.796-.068zm-117.771-3.342c.613-.545 1.091-1.5 1.091-1.978 0-1.432-1.978-3.068-3.615-3.068-3.205 0-4.569 2.727-2.523 4.773 1.637 1.637 3.615 1.773 5.047.273zm100.518 0c2.728-1.909 1.5-5.046-2.046-5.046-1.295 0-2.25.545-3.069 1.773-1.091 1.773-1.091 1.841.41 3.069 1.909 1.568 2.727 1.636 4.705.204zm-129.569-11.184c.273-3.273-1.159-5.455-3.614-5.455-2.115 0-3.069 1.295-3.069 4.228 0 1.909.477 3.137 1.705 4.364 1.636 1.637 1.909 1.705 3.273.75 1.091-.682 1.568-1.773 1.705-3.887zm159.37 2.728c1.637-1.773 1.705-5.797.136-7.297-1.841-1.841-4.773-.477-5.523 2.66-1.228 4.978 2.318 8.047 5.387 4.637zm-123.227-7.911c.273-1.909-1.5-3.273-3.546-2.727-3.615.886-2.523 4.705 1.227 4.364 1.569-.136 2.182-.614 2.319-1.637zm87.016.273c.545-.954.477-1.432-.409-2.318-2.183-2.251-6.547.545-4.569 2.932 1.091 1.227 4.023.887 4.978-.614zm-105.292-4.705c1.295-2.319-.75-4.706-4.092-4.706-3.137 0-4.637 1.773-3.41 4.024 1.296 2.523 6.342 3 7.502.682zm125.068.136c1.637-1.773 1.159-3.614-1.159-4.705-3.546-1.705-7.638 2.114-5.251 5.046 1.227 1.364 5.046 1.228 6.41-.341zm-101.541-9.206c1.773-.546 4.432-1.978 5.864-3.069 1.433-1.159 2.728-2.114 2.865-2.114.136 0 .068.955-.069 2.114-.545 3.478 1.433 2.046 2.455-1.841 1.433-5.387.751-14.798-1.363-19.435-2.251-4.979-6.07-9.138-10.366-11.389-3.001-1.568-4.296-1.841-9.274-1.841-4.979 0-6.274.273-9.275 1.841-6.546 3.41-10.502 10.161-10.434 17.594l.069 4.433.886-2.796c3.955-12.548 14.048-18.958 25.027-15.958 3.888 1.092 3.615 1.842-.681 1.842-4.638 0-8.525 1.773-11.525 5.251-2.864 3.205-3.819 6.478-3.478 11.934.204 3.682.614 5.046 2.25 7.296 2.319 3.274 5.524 5.524 9.07 6.343 3.683.886 4.364.886 7.979-.205zm80.333 0c10.502-3.751 13.98-16.571 6.751-24.959-3.137-3.751-6.888-5.387-12.07-5.524l-4.092-.068 2.728-1.296c9.683-4.569 22.163 2.523 25.982 14.73.818 2.66.886 2.66.954.682.682-12.07-6.751-20.526-18.821-21.345-4.228-.272-5.388-.068-9.07 1.569-4.774 2.182-9.07 6.41-10.979 10.979-2.865 6.615-3.274 17.321-.819 22.777l1.091 2.387.341-2.66.41-2.591 1.363 1.5c3.683 4.092 10.775 5.728 16.231 3.819zm-119.613-1.5c2.728-3.41 1.5-8.456-1.978-8.456-1.568 0-2.25.477-3.069 2.045-1.363 2.592-1.295 5.388.137 6.956 1.568 1.705 3.273 1.501 4.91-.545zm154.324.613c2.727-2.455.409-9.069-3.206-9.069-3.273 0-4.159 5.387-1.363 8.456 1.909 2.046 2.796 2.182 4.569.613zm-83.675-34.574c0-2.455-1.773-3.819-3.341-2.523-2.114 1.773-.751 5.114 1.977 4.705 1.023-.136 1.364-.75 1.364-2.182zm12.616.955c1.5-2.728-1.773-5.456-3.955-3.274-1.705 1.705-.409 4.638 2.046 4.638.613 0 1.5-.614 1.909-1.364zm-19.231-8.32c1.432-1.432 1.023-4.637-.682-5.251-2.25-.818-3.955.273-3.955 2.523 0 2.114 1.091 3.546 2.728 3.546.614 0 1.432-.34 1.909-.818zm25.71-.546c2.523-2.796-1.637-6.614-4.297-3.955-1.227 1.228-1.023 3.75.409 4.57 1.705 1.022 2.524.886 3.888-.615zm-47.736-4.091c1.432-1.16 1.295-3.683-.341-5.115-1.978-1.773-7.297-2.046-10.23-.545-2.659 1.364-3.546 4.16-1.841 5.591 2.455 1.978 10.025 2.046 12.412.069zm76.855.614c3.614-1.433 3.068-5.32-.887-6.684-6.41-2.25-13.161 1.092-10.843 5.32 1.364 2.591 6.956 3.205 11.73 1.364zm-64.103-6.547c1.705-1.569 1.568-3.75-.477-5.66-1.433-1.364-1.91-1.5-3.41-.819-2.455 1.16-2.933 3.887-.955 6.002 1.773 1.909 3.069 2.045 4.842.477zm22.368-.614c.886-2.25-.478-5.387-2.387-5.387-2.046 0-3.546 3.205-2.523 5.387 1.091 2.455 4.023 2.455 4.91 0zm22.64.614c1.364-1.228 1.637-4.296.409-5.524-.477-.477-1.636-.818-2.591-.818-2.319 0-3.41 1.16-3.41 3.75 0 3.615 2.933 4.979 5.592 2.592zm-34.711-7.16c1.023-1.5-.409-4.638-2.114-4.638-2.728 0-3.75 3.069-1.773 5.115 1.296 1.296 2.933 1.09 3.887-.478zm23.05.818c2.387-1.296 1.227-5.456-1.569-5.456-1.091 0-2.591 1.841-2.591 3.342 0 .682 1.841 2.796 2.455 2.796.205 0 .955-.341 1.705-.682zm-45.895-8.524c1.773-2.115 1.91-3.547.341-5.251-1.364-1.5-3.069-1.569-5.66-.205-3.342 1.705-4.364 4.773-2.25 6.82 1.568 1.636 5.591.886 7.569-1.364zm72.968 1.568c1.296-1.296.955-4.296-.682-5.797-2.114-1.909-4.092-2.386-6.274-1.636-3 1.16-2.25 5.523 1.296 7.433 1.841 1.023 4.637 1.023 5.66 0zm-56.328-6.683c3.614-4.433-1.842-8.388-6.479-4.774-2.455 1.91-2.932 3.887-1.364 5.592 1.637 1.773 6.138 1.296 7.843-.818zm39.689.955c2.727-2.728-.682-7.093-5.524-7.093-2.455 0-3.614 1.091-3.614 3.478 0 3.751 6.478 6.274 9.138 3.615z" fill="#A42421"/><path d="M247.756 126.035c-3.75-1.637-3.818-6.956-.068-8.865 2.319-1.228 4.16-.887 6.07 1.227 3.75 3.956-.819 9.752-6.002 7.638zm70.104-.887c-1.091-1.159-2.046-2.727-2.046-3.546 0-.818.955-2.386 2.046-3.546 1.705-1.636 2.455-1.977 3.955-1.568 4.16 1.023 6.002 5.183 3.41 8.047-2.523 2.864-4.91 3.068-7.365.613zm61.58 49.782l-2.114-4.091 5.251-1.16c13.025-2.727 23.663-7.365 32.937-14.32 3.069-2.387 10.434-9.207 16.231-15.071 10.774-10.98 11.184-11.593 3.409-4.979-13.093 11.184-24.004 18.617-33.756 23.187-5.183 2.386-16.23 6.069-21.413 7.092-2.182.477-2.318.409-1.909-1.091.273-.887.477-3.342.477-5.388l.068-3.75 5.251-2.933c8.525-4.705 15.958-10.774 33.075-27.005 18.548-17.594 25.368-22.981 34.915-27.687 13.843-6.887 26.596-8.865 46.236-7.365 17.662 1.364 30.824 1.091 38.189-.682 12.411-3.068 24.413-9.342 34.915-18.207l4.637-3.956-.477 4.57c-.273 2.523-.887 7.092-1.5 10.16-.546 3.069-1.16 7.297-1.432 9.411l-.341 3.819 4.296 1.705c4.842 1.978 17.662 5.319 20.117 5.319 2.66 0 1.91 1.432-3.41 6.547-15.002 14.252-34.369 22.777-56.328 24.822-4.774.41-14.935.478-25.914.205-32.256-.75-39.143 1.5-69.831 22.709-23.05 15.957-35.461 21.208-51.214 21.89l-8.183.409-2.182-4.16z" fill="#A42421"/><path d="M333.613 364.306c-7.229-1.228-12.343-4.501-15.617-10.093-1.704-2.932-1.841-3.682-1.841-10.979 0-7.57.068-8.047 2.319-12.616 2.728-5.592 7.365-10.434 12.275-12.889l3.478-1.773v-3.41c0-2.932-.205-3.409-1.501-3.75-.886-.137-5.046-1.091-9.274-2.114-4.228-.955-7.842-1.637-7.91-1.569-.137.137-1.228 4.91-2.455 10.502-5.865 27.346-10.639 37.371-20.254 42.485-7.638 4.024-10.161 4.365-28.028 4.092-18.276-.341-20.39-.818-25.573-5.319-4.433-3.887-6.206-8.456-6.206-15.685.069-12.411 6.888-22.981 17.595-26.937l3.341-1.295-.409-7.843c-.614-11.184-3.001-24.822-6.615-38.257-3.478-12.547-3.273-12.275-7.979-13.98-8.797-3.136-15.139-8.728-18.821-16.571-2.114-4.364-2.183-4.91-2.183-13.093 0-8.047-.136-8.729-2.045-12.616-1.773-3.614-1.978-4.842-1.978-10.025 0-5.66-.068-5.932-1.773-6.683-3.887-1.773-15.48-10.024-19.845-14.184-3.273-3.069-5.387-5.728-6.887-8.934-2.251-4.5-2.251-4.5-2.182-14.729.068-11.389 1.5-21.073 5.114-34.234l2.114-7.706-4.433-4.228c-10.57-10.297-16.844-25.232-15.957-38.325.887-13.707 7.774-25.641 18.481-32.052 8.456-5.046 17.867-6.683 27.005-4.569 5.523 1.296 15.343 6.274 20.731 10.639 2.591 2.046 4.978 3.75 5.251 3.75.204 0 2.591-.818 5.114-1.773 15.89-6.069 33.961-8.32 51.078-6.41 10.638 1.228 18.617 3.205 29.119 7.297l3.205 1.227 2.25-2.114c7.57-7.024 17.458-11.865 27.21-13.23 16.98-2.454 34.438 9.752 39.757 27.824 4.501 15.48-1.023 34.097-14.184 47.531l-4.433 4.501.955 3.205c.545 1.773 1.636 6.138 2.387 9.684.818 3.546 1.568 6.547 1.704 6.751.614.546 10.707-8.32 24.005-21.208 15.889-15.412 25.164-22.709 35.12-27.619 17.117-8.524 33.279-10.98 57.488-8.797 15.207 1.364 19.708 1.364 27.141.068 13.503-2.318 24.823-8.456 36.348-19.572 3.409-3.273 7.296-6.41 8.66-7.024 6.956-2.864 14.253.682 16.162 7.91.819 3.002 0 14.663-1.704 23.46-.478 2.66-.682 4.978-.478 5.25.614.614 11.934 2.592 15.071 2.592 7.297.068 13.093 6.615 12.139 13.775-.546 3.819-3.137 7.297-12.275 16.367-7.024 6.956-8.047 8.252-7.706 9.684l.409 1.704 4.296-1.977c11.934-5.388 22.641-5.933 34.711-1.705 14.935 5.115 25.709 19.708 24.209 32.529-.545 4.569-3.546 10.843-6.478 13.707-1.364 1.364-4.297 3.273-6.547 4.296-3.546 1.568-4.569 1.773-9.547 1.5-6.479-.341-10.093-1.773-15.071-5.933-6.615-5.455-9.206-3.546-17.526 13.571-9.002 18.549-15.889 27.619-26.187 34.575-10.638 7.228-25.3 11.797-37.984 11.797-3.478 0-3.955.137-3.614 1.228.204.613.818 3.478 1.432 6.273 3.955 19.163 8.115 27.892 15.207 32.12 7.092 4.228 8.797 7.297 13.775 24.891 8.661 30.619 9.07 44.804 1.569 54.624-4.024 5.319-7.774 7.774-14.185 9.479-8.183 2.182-27.823 1.773-35.188-.751-14.389-4.91-17.185-24.345-5.455-37.37 1.568-1.773 2.114-2.796 1.636-3.273-.613-.614-18.958-7.911-20.867-8.32-.341-.068-1.637 3.887-2.864 8.729-3.342 13.093-8.32 25.436-12.48 30.824-.886 1.227-3.478 3.478-5.66 4.91-5.251 3.478-11.116 4.841-21.208 4.841-15.412 0-23.528-1.977-28.437-6.887-5.729-5.66-6.684-16.162-2.387-25.096 2.182-4.432 7.637-10.161 11.388-11.934l2.66-1.227-5.115-3.274c-2.728-1.841-6.546-4.705-8.456-6.41-1.909-1.773-3.887-3.137-4.364-3.137-1.16 0-17.663 4.569-18.14 4.978-.136.205-3.069 9.479-6.41 20.663-6.411 21.209-7.979 24.823-12.616 28.915-2.933 2.523-7.638 4.978-12.48 6.41-2.932.887-6.615 1.091-17.048 1.023-7.365-.068-15.003-.341-17.049-.682zm35.393-10.775c3.887-2.046 6.615-4.569 8.183-7.569 1.091-2.183 6.956-21.141 12.071-39.212l1.977-6.819 8.456-2.115c4.706-1.227 11.389-3.068 14.867-4.228l6.274-2.045 3.955 4.091c2.114 2.319 6.683 5.933 10.024 8.115 13.503 8.729 13.366 8.525 11.866 15.071l-.955 4.228-3.614.819c-7.638 1.705-13.093 7.842-13.639 15.343-.409 5.251.682 7.843 4.024 9.479 3.409 1.774 14.116 3.001 22.708 2.592 13.23-.614 17.322-4.228 23.05-20.527 3.001-8.524 6.683-22.845 6.683-26.05 0-1.091-.955-4.023-2.046-6.41-1.159-2.387-1.977-4.637-1.909-4.91.136-.341 2.387.818 4.978 2.591 6.82 4.433 15.821 8.661 24.755 11.525 4.228 1.364 8.66 3.137 9.888 3.955 2.182 1.432 7.297 10.434 7.297 12.753 0 .613-1.228 1.636-2.728 2.318-3.205 1.432-7.229 5.592-8.593 8.934-2.455 5.796-.545 12.616 4.297 15.412 4.432 2.659 25.572 3.341 32.596 1.091 3.888-1.228 8.116-5.66 9.548-10.093 2.386-7.16.204-22.981-6.138-44.326-3.41-11.525-4.569-13.98-7.91-16.162-8.388-5.592-13.025-12.003-16.503-22.777-1.364-4.024-6.001-23.391-8.456-35.12-.341-1.432-.205-1.432 3.341-.819 5.592 1.091 21.072.205 27.482-1.432 11.662-3.068 22.3-10.092 29.46-19.503 2.046-2.592 6.752-10.911 10.57-18.413 6.002-11.729 7.502-14.184 11.048-17.798 4.501-4.501 8.388-6.138 12.82-5.32 2.728.546 7.229 3.001 9.07 5.047 6.001 6.615 17.049 5.319 20.8-2.455 4.228-8.729-1.842-20.049-13.912-25.846-14.389-6.888-31.983-3.137-43.849 9.411-5.115 5.455-8.456 10.775-14.73 23.732-8.524 17.525-14.184 23.868-24.686 27.823-9.07 3.41-21.823 3.546-32.734.409-8.66-2.523-11.183-3.751-16.503-8.183-8.592-7.161-18.889-10.911-32.187-11.662-4.297-.272-14.662 0-25.641.682-10.093.682-21.959 1.092-26.255.955-7.57-.204-7.774-.273-5.456-1.159 1.296-.546 5.319-2.455 8.865-4.228 6.206-3.137 9.207-4.978 31.302-19.981 10.433-7.024 18.003-10.979 25.436-13.23 8.32-2.591 14.594-3.069 34.643-2.523 24.141.545 33.892-.477 47.395-4.842 14.457-4.705 27.005-12.479 38.393-23.868 10.161-10.229 10.161-11.115-.341-12.411-3.409-.478-8.797-1.569-11.934-2.455-8.66-2.523-9.547-2.933-9.138-4.365 1.16-3.682 3.274-19.844 3.342-25.709.204-9.07-.341-9.138-8.661-1.227-13.025 12.48-26.323 19.367-42.008 21.685-8.319 1.296-12.343 1.296-29.255-.136-11.593-.955-15.275-1.023-21.89-.341-11.184 1.091-20.118 3.546-28.983 7.91-10.161 5.047-16.844 10.298-34.233 26.869-8.116 7.774-16.435 15.617-18.549 17.39-3.751 3.273-17.526 12.752-18.481 12.752-.273 0-.682-1.909-.955-4.296-.75-6.956-3.75-20.39-6.205-28.233-2.183-6.887-2.251-7.365-1.091-8.115 11.047-7.774 17.935-17.662 20.321-29.255 3.478-17.049-7.228-33.893-23.186-36.484-9.274-1.5-20.594 3.205-31.096 12.752-2.592 2.387-5.047 4.297-5.388 4.297-.341 0-1.977-.75-3.614-1.637-3.887-2.182-15.753-6.138-23.118-7.706-8.183-1.705-29.323-1.705-37.507 0-7.501 1.636-19.367 5.524-22.981 7.706-3.478 2.046-4.433 2.046-6.069.136-3.069-3.478-12.003-9.82-17.322-12.411-5.66-2.728-6.001-2.796-12.957-2.796-6.342 0-7.569.204-11.115 1.841-14.117 6.615-20.254 24.618-14.048 41.121 2.864 7.774 10.502 16.981 18.139 22.163l1.569 1.023-2.387 7.365c-5.115 15.958-8.32 38.598-6.683 46.918.273 1.637 1.909 3.819 5.592 7.501 6.206 6.206 11.456 9.82 21.276 14.73l7.365 3.683-1.704 3.137c-2.865 5.455-2.046 12.07 2.114 16.571 1.636 1.705 1.636 1.705.545 7.16-1.841 9.752-.341 15.821 5.388 21.277 2.386 2.319 9.069 5.592 14.32 7.024 3.683.955 3.887 1.228 7.365 13.912 5.047 18.412 8.184 38.393 8.184 52.509v9.07l-3.683.409c-10.297 1.023-17.117 9.275-17.048 20.459.068 4.705 1.432 6.955 5.455 9.001 2.387 1.228 4.296 1.364 17.458 1.569 12.684.204 15.412.068 18.617-.887 4.774-1.568 9.274-5.455 11.525-10.093 3.137-6.41 9.274-30.141 11.32-43.439.409-2.796.887-5.183 1.023-5.388.205-.136 3 .546 6.274 1.501 7.501 2.25 13.639 3.682 22.368 5.182l6.819 1.16v23.049l-2.864.546c-9.547 1.568-15.685 9.888-15.071 20.322.477 9.274 4.569 10.911 27.141 10.706 12.548-.136 13.503-.204 16.367-1.773z" fill="#DA342C"/><path d="M338.046 349.644c-.819-2.114-.41-7.16.954-10.638 1.432-3.819 1.296-4.978-.341-2.864-2.25 2.864-3.887 6.751-4.228 10.161-.341 3.546-.409 3.614-1.977 2.932-3.069-1.432-3.478-8.047-.819-13.161 2.251-4.229 6.82-7.093 12.48-7.638 3.546-.341 3.614-.409 4.023-2.864.682-4.092.478-22.777-.341-28.437-1.091-7.979-3.682-16.231-7.433-23.8-5.523-11.184-6.546-11.593-3.137-1.296 3.001 8.865 6.342 22.572 5.66 23.186-.545.546-12.82-1.705-21.276-3.819-23.323-5.864-44.395-17.935-56.056-31.983-3.751-4.569-7.706-10.161-7.706-10.979 0-.273 2.387-.068 5.319.409 7.433 1.228 25.164 1.159 34.302-.136 13.502-1.842 29.119-6.615 40.166-12.207 11.594-5.865 26.051-18.344 32.666-28.096 3.682-5.524 7.91-14.321 9.751-20.254l1.432-4.637 4.16.409c12.343 1.228 40.576 1.228 60.966.068 22.981-1.295 28.914-1.023 37.916 1.773l4.501 1.364-1.432 2.728c-1.841 3.682-1.841 9.138-.068 12.684 1.841 3.614 6.683 7.911 10.57 9.411 4.16 1.568 9.956 1.159 12.752-.887l2.046-1.5 1.978 3.955c2.659 5.32 4.978 13.025 8.183 28.028 5.66 25.709 10.093 34.916 20.39 42.008 5.796 3.955 6.206 4.705 10.706 22.504 6.683 26.187 6.752 35.188.273 40.03-2.523 1.91-10.502 2.796-20.117 2.319-12.275-.614-13.912-1.501-13.912-7.365 0-5.047 4.024-9.684 10.093-11.593 2.455-.75 2.864-1.16 2.864-2.796 0-2.66-3.751-12.071-6.206-15.412-2.727-3.819-4.909-5.047-14.934-8.388-16.23-5.387-27.551-12.411-39.28-24.482-6.683-6.956-15.139-18.208-18.481-24.686-.886-1.841-1.773-3.205-1.977-3.069-.819.887 6.069 16.503 9.342 21.072 1.16 1.637 1.16 1.91.205 2.251-.614.204-1.91.409-3.001.409-3.546 0-14.593 3.341-30.346 9.07-8.593 3.205-17.799 6.41-20.458 7.16-6.07 1.773-14.73 3.682-15.071 3.341-.205-.136.545-3.614 1.568-7.706 2.455-10.16 2.66-21.685.341-28.232-2.182-6.342-3-7.297-2.387-2.728.341 2.046.478 7.297.478 11.593-.137 6.752-.478 9.275-2.865 18.481-3.955 15.139-15.752 55.101-17.184 57.897-2.592 5.115-7.434 7.433-15.481 7.501h-5.66v-3.955c0-2.864.478-4.91 1.637-7.16 1.978-3.956 1.296-4.092-1.841-.478-2.387 2.796-3.887 6.615-3.887 9.82 0 1.773-.069 1.773-4.706 1.773-3.682 0-4.773-.272-5.114-1.091zm20.594-34.438c.205-1.568-.136-2.523-.954-3.137-1.637-1.159-2.114-1.091-3.683.478-1.773 1.773-1.705 3.75.068 5.523 1.228 1.228 1.569 1.296 2.864.409.955-.613 1.569-1.841 1.705-3.273zm15.344-3.478c1.909-2.523 1.023-5.524-1.705-5.865-3.273-.409-5.183 4.229-2.796 6.82 1.501 1.637 2.796 1.364 4.501-.955zm-9.07-11.456c2.728-2.728 2.592-7.365-.341-9.275-2.114-1.364-4.16-.75-5.455 1.773-1.432 2.728-1.296 4.978.409 7.092 1.637 2.114 3.546 2.251 5.387.41zm155.074-1.092c3.137-3.068-1.637-8.387-6.001-6.683-.682.273-1.091 1.228-1.091 2.728 0 1.91.409 2.592 2.25 3.683 2.66 1.636 3.478 1.704 4.842.272zm18.413 0c.613-.545 1.091-1.841 1.091-2.727 0-1.705-2.728-5.047-4.092-5.047-3.682 0-4.774 4.978-1.637 7.433 2.183 1.705 3.205 1.773 4.638.341zm-157.257-9.342c1.705-1.364 3.547-5.865 3.547-8.524 0-2.933-1.842-5.933-4.092-6.615-1.978-.614-5.456 1.5-6.547 4.091-.545 1.296-.954 3.887-.954 5.797 0 2.796.34 3.819 1.773 5.183 1.773 1.841 4.159 1.841 6.273.068zm117.363-6.001c2.25-.819 4.16-3.546 4.16-6.07 0-1.909-2.251-6.137-4.228-7.91-4.433-4.092-10.707-4.978-13.776-1.91-4.159 4.228-.818 12.412 6.411 15.549 2.864 1.227 4.569 1.364 7.433.341zm24.209-.682c1.023-.478 2.046-1.773 2.455-3.069 2.114-6.41-7.706-14.525-11.934-9.82-1.569 1.773-1.5 6.547.204 8.797 1.501 2.046 5.388 4.842 6.683 4.842.478 0 1.637-.341 2.592-.75zm-165.235-4.024c1.841-1.023 4.023-5.66 4.023-8.524 0-2.864-1.5-6.137-3.068-6.751-2.592-.955-4.978-.409-6.683 1.568-2.796 3.342-3.137 9.07-.75 12.889 1.091 1.637 4.159 2.046 6.478.818zm22.641-18.344c6.342-6.206.75-19.572-6.138-14.73-2.182 1.569-3.887 6.547-3.41 10.366.273 2.523.819 3.682 2.524 5.182 2.523 2.251 4.091 2.046 7.024-.818zm135.092-4.228c.955-.477 2.251-1.909 2.865-3.205 3.137-6.615-2.865-19.981-9.752-21.686-8.593-2.182-10.434 12.48-2.728 21.277 3.751 4.228 6.206 5.182 9.615 3.614zm-32.733-3.41c7.024-8.319-9.411-31.028-17.185-23.8-4.296 4.024-2.25 14.662 4.024 21.141 5.046 5.182 10.161 6.205 13.161 2.659zm-70.172-4.296c3.751-1.568 4.91-5.387 2.387-7.911-1.909-1.909-6.683-1.841-9.138.069-2.455 1.909-2.455 5.455 0 7.365 2.114 1.705 3.546 1.773 6.751.477zm-51.896-1.159c2.524-1.978 3.956-5.115 4.024-8.866.068-3.75-1.432-6.41-3.955-7.024-3.888-.954-8.525 4.297-8.525 9.752 0 6.479 4.16 9.479 8.456 6.138zm86.13-8.252c.886-.818 1.568-2.046 1.568-2.796 0-3.887-5.523-5.251-8.524-2.182-1.978 1.909-2.114 2.864-.614 4.978 1.432 2.046 5.388 2.046 7.57 0zm46.508-8.32c1.432-1.773 1.637-5.523.41-8.115-1.364-2.932-2.865-4.296-5.251-4.91-2.524-.613-5.32 2.114-5.32 5.251 0 2.319 2.046 6.342 4.024 7.843 1.5 1.159 5.183 1.091 6.137-.069zm-98.472-2.182c3.75-1.977 5.319-4.364 5.319-7.978-.205-10.775-14.73-17.254-23.936-10.639-3.819 2.728-4.638 8.388-1.773 12.616 2.25 3.273 3.137 3.955 7.433 6.138 4.091 2.045 8.865 1.977 12.957-.137zm34.233.341c5.729-2.796 7.365-7.91 3.683-11.593-1.978-1.909-3.751-2.387-8.252-1.977-4.228.341-8.115 4.023-8.66 8.115-.341 2.386-.137 3 1.704 4.841 1.705 1.705 2.592 2.046 5.32 2.046 1.909 0 4.5-.613 6.205-1.432zm37.234-16.435c6.479-1.909 9.411-7.706 6.752-13.229-4.092-8.32-17.731-11.662-27.687-6.82-4.637 2.319-6.547 4.774-6.547 8.593 0 4.773 3.819 8.66 10.979 11.184 3.615 1.227 12.685 1.432 16.503.272zm-46.849-7.774c3-1.432 4.364-3.409 4.364-6.274 0-6.683-7.16-11.593-15.957-10.911-7.365.614-11.252 4.092-10.297 9.138.545 2.933 4.364 6.683 8.115 8.047 3.887 1.364 10.911 1.364 13.775 0z" fill="#DA342C"/><path d="M254.712 345.621c-.545-3.137.137-7.774 1.705-10.843 1.5-2.932.955-3.137-1.432-.546-2.319 2.387-3.955 6.479-3.955 9.752 0 1.773-.273 2.66-.955 2.66-1.773 0-2.796-2.183-2.796-6.07.068-4.841 2.25-9.069 6.342-11.934 2.523-1.773 3.751-2.114 8.524-2.455l5.592-.341v-25.913l2.046-1.364c2.455-1.705 4.024-5.865 3.41-9.138-.546-2.933-3.751-6.206-6.069-6.206-1.433 0-1.773-.409-2.114-2.523-.273-1.432-1.296-6.206-2.319-10.57-1.091-4.433-1.91-8.047-1.841-8.047.068 0 2.455 2.318 5.387 5.114 8.865 8.593 19.094 15.48 31.369 21.141 4.297 1.977 5.251 2.727 5.251 3.955 0 6.887-8.388 41.257-11.661 47.668-2.932 5.796-8.865 8.319-18.344 7.91l-5.115-.204.205-3.751c.068-2.319.818-4.978 1.841-7.092l1.705-3.342-1.5 1.023c-2.933 1.91-5.456 6.342-5.865 10.025l-.341 3.478h-8.592l-.478-2.387zm36.211-26.937c1.773-1.978.682-5.046-1.909-5.319-2.387-.273-3.819 2.387-2.66 4.978.955 2.046 2.865 2.182 4.569.341zm-14.934-1.909c1.364-.955 1.705-3.069.614-4.638-1.842-2.864-5.115-1.704-5.115 1.773 0 2.796 2.387 4.297 4.501 2.865zm11.934-13.026c1.296-1.022 1.636-1.977 1.636-4.364 0-3.682-1.704-5.933-4.5-5.933-4.024 0-5.592 6.683-2.319 9.888 1.978 2.046 3.069 2.114 5.183.409zm153.573 42.213c-7.91-.819-8.592-1.296-8.251-5.797.545-6.41 4.637-10.638 11.729-12.07 3.478-.682 4.092-1.023 4.842-2.864 1.569-3.751 2.592-9.752 2.114-12.275-.682-3.546-3.069-5.933-10.706-10.639-6.274-3.887-15.753-11.729-14.935-12.479.205-.137 4.91-1.978 10.434-4.092 11.388-4.364 19.026-6.478 25.436-7.092l4.365-.409 4.023 4.364c3.137 3.41 4.092 4.978 4.433 7.229.204 1.568 1.432 5.455 2.796 8.66l2.387 5.865-1.023 5.251c-2.523 12.343-8.184 28.369-11.457 31.983-1.091 1.296-3.069 2.796-4.364 3.342-2.933 1.227-14.526 1.773-21.823 1.023zM251.371 238.556c-10.911-1.705-12.957-2.319-15.208-4.638-2.659-2.727-3.546-5.114-3.546-9.342 0-3.751 1.228-10.229 1.91-10.229.272 0 .954.341 1.5.682.886.545.818.682-.273.682-2.387 0 1.364 3.137 7.365 6.069 13.912 6.956 34.302 8.661 50.532 4.296 11.116-3 10.775-3.341-3.069-3-15.684.341-26.118-.887-37.029-4.365-9.956-3.205-16.367-6.547-20.731-10.979-3.342-3.273-3.614-3.751-3.614-6.683 0-3.546 1.704-7.843 3.136-7.843 1.91 0 5.456 2.251 6.752 4.297 1.841 2.864 7.774 7.365 13.639 10.365 13.979 7.092 31.642 8.115 54.691 3.069 9.889-2.182 14.389-3.751 26.119-9.343 4.296-2.045 8.865-4.228 10.093-4.705 2.182-.955 2.25-.955 1.568.273-.886 1.636-5.865 5.796-11.593 9.615-4.705 3.205-10.434 6.001-16.844 8.183l-4.023 1.364 3.137.069c7.774 0 19.98-3.206 28.846-7.638 2.182-1.091 4.091-1.841 4.228-1.705.204.205-2.046 2.523-4.978 5.183-12.071 11.184-27.074 18.821-46.032 23.527-14.048 3.478-34.438 4.773-46.576 2.796zm276.869-20.595c-5.661-.75-6.752-1.432-8.047-4.637-.75-1.705-2.523-4.978-4.024-7.229-2.455-3.887-2.523-4.16-1.091-3.75 2.728.818 13.775 3.136 15.003 3.136.614 0 2.046.955 3.137 2.046 1.636 1.637 2.659 2.046 4.91 2.046 2.387 0 3.273-.409 5.455-2.659 1.705-1.705 3.478-2.796 5.183-3.137 3.955-.682 10.979-4.092 15.003-7.229 2.796-2.182 6.683-6.478 9.615-10.775.137-.136.819.273 1.501.887 2.25 2.046 5.932 1.705 8.456-.819 1.909-1.909 2.182-2.659 2.182-5.66 0-3.546-.478-4.228-4.16-6.478-1.227-.75-1.091-1.159 1.978-7.365 2.864-5.933 3.341-6.547 4.5-5.865 2.66 1.364 5.524.819 7.979-1.636 1.91-1.91 2.319-2.796 2.319-5.32 0-1.636-.478-3.614-1.023-4.432-.955-1.364-.887-1.569 1.637-3.546 2.727-2.183 10.638-6.206 12.206-6.206.41 0 .819.75.819 1.705 0 .955.886 2.659 1.977 3.887 2.728 3.069 6.274 3.069 9.002 0 1.296-1.432 1.978-2.932 1.978-4.296 0-1.978.068-2.046 2.25-1.637 1.159.273 3.546 1.159 5.251 1.978 2.728 1.295 3.069 1.636 2.864 3.478-.273 2.932-2.455 7.024-5.387 10.501l-2.592 2.933-2.591-1.091c-3.819-1.569-8.592-1.978-12.07-1.091-1.705.477-3.751.886-4.638.954-1.636.205-5.796 4.569-9.479 9.957-1.159 1.705-4.432 7.842-7.365 13.639-6.205 12.411-9.888 18.207-14.525 22.776l-3.41 3.342-2.046-1.5c-2.386-1.637-5.523-1.842-8.251-.409-2.455 1.227-4.364 5.182-3.819 7.842.546 2.387-.341 2.932-6.41 4.16-3.819.818-4.365.818-4.91-.205-.341-.614-1.637-1.432-2.933-1.909-2.796-.887-5.114-.137-7.092 2.318-1.364 1.842-3.478 2.114-9.342 1.296z" fill="#DA342C"/><path d="M276.057 204.799c-3.069-.818-7.57-3-10.502-5.25-1.159-.887-5.592-2.728-9.888-4.024-4.228-1.364-8.456-2.66-9.411-3-22.777-7.229-46.304-21.55-48.486-29.529-.887-3.341.205-16.775 2.182-26.732 3.137-15.753 10.025-35.802 16.026-46.508l2.387-4.228-1.569-.41c-.886-.136-2.796-.409-4.296-.477l-2.728-.205 1.978-1.909c1.159-1.023 3.137-2.046 4.637-2.25 1.432-.273 2.591-.682 2.591-.955 0-.205-1.568-1.16-3.409-2.046-3.069-1.432-3.342-1.705-2.455-2.591 1.5-1.5 7.637-1.773 11.661-.546 1.841.546 3.478.887 3.682.682.614-.614-7.092-7.91-11.524-10.775-6.752-4.432-10.775-5.66-15.071-4.5-6.479 1.773-10.093 8.251-9.207 16.639.751 6.342 5.388 15.412 10.502 20.458l4.16 4.092-1.364 2.591-1.364 2.66-2.045-1.228c-6.411-3.75-13.708-13.23-16.299-21.276-2.182-6.82-1.773-15.685 1.023-21.481 2.455-5.183 6.819-9.548 11.729-11.798 3.274-1.5 4.433-1.705 9.343-1.432 5.933.34 10.434 2.114 17.253 6.751 3.41 2.387 10.639 8.66 11.048 9.684.136.34-.614 1.5-1.705 2.591-1.023 1.091-1.705 1.978-1.432 1.978.273 0 3-1.364 6.137-3 10.57-5.73 23.255-9.889 33.893-11.185l4.569-.545v5.114c-.068 7.434 2.523 11.662 7.228 11.662 4.706 0 7.229-4.16 7.297-12.003v-4.773l4.637.545c10.843 1.296 21.209 4.57 33.006 10.502 7.229 3.615 8.047 3.683 5.183.478-1.364-1.432-1.364-1.432 1.842-4.433 5.182-4.705 10.57-8.593 15.343-10.98 4.024-1.977 5.047-2.181 10.57-2.181 7.297 0 11.116 1.5 15.89 6.273 4.432 4.433 6.41 9.48 6.819 16.98.409 9.07-1.705 15.754-7.501 23.119-2.524 3.273-10.502 10.57-11.525 10.57-.273 0-1.159-1.091-1.91-2.455l-1.5-2.455 4.433-4.637c12.479-13.23 13.843-30.824 2.796-36.143-3.956-1.91-7.024-1.569-13.23 1.432-3.001 1.5-6.274 3.955-9.888 7.501-3.001 2.932-5.319 5.524-5.115 5.66.205.205 1.978-.068 4.024-.614 4.364-1.159 7.433-1.295 9.82-.34 2.591.954 2.182 1.84-1.637 3.477-3.751 1.637-3.887 2.319-.409 2.933 2.318.409 5.865 2.727 5.865 3.75 0 .341-1.569.75-3.41.887-1.91.204-3.546.477-3.751.614-.136.204 1.228 3.205 3.001 6.75 9.547 18.686 16.23 42.486 17.526 62.876.545 8.456.204 9.343-5.66 15.003-9.684 9.206-27.278 17.798-50.737 24.823-5.66 1.704-9.684 3.341-12.207 5.114-5.796 3.819-9.479 4.842-18.412 5.115-4.296.136-9.002-.069-10.434-.41zm2.455-19.844c1.568-.818 3.819-2.319 4.978-3.478l2.114-1.978 2.319 2.183c6.751 6.342 17.662 6.342 23.663.068 2.387-2.592 4.228-6.82 4.228-10.025v-2.728l-1.636 3.41c-5.115 10.775-17.185 13.162-24.141 4.706-1.773-2.114-2.182-3.274-2.182-5.797v-3.137l4.978-2.455c5.455-2.728 12.207-8.32 13.843-11.593 1.569-3 .887-7.297-2.523-15.821-1.568-3.955-2.932-7.092-3.069-6.956-.136.137.409 3.069 1.091 6.615 1.16 5.456 1.773 12.275 1.228 12.275-.136 0-1.705-.477-3.614-1.023-5.388-1.637-23.527-1.5-28.642.205l-3.887 1.364.409-4.228c.409-3.683 1.978-12.207 2.864-15.276.819-3.137-3.273 6.342-4.842 10.979-2.045 6.411-2.182 10.298-.409 13.23 1.91 3.069 7.774 7.501 13.571 10.297l4.978 2.387-.409 3.478c-.614 4.296-2.796 7.297-6.683 9.206-7.501 3.615-15.617.205-19.708-8.456l-1.978-4.091.341 3.546c.546 6.069 4.228 11.184 9.616 13.57 3.273 1.432 10.16 1.16 13.502-.477zm-56.942-10.297c1.227-1.228.954-4.228-.546-6.206-2.728-3.41-7.706-3.614-8.592-.273-.478 1.91 1.159 5.524 2.932 6.547 1.705.955 5.183.955 6.206-.068zm135.229-1.228c4.16-4.092 1.159-9.002-4.16-6.819-2.864 1.227-4.637 4.705-3.546 7.16 1.159 2.523 4.978 2.387 7.706-.341zm-119.34-2.046c1.432-.818 1.705-3.409.477-4.637-1.159-1.159-4.364-1.023-5.592.273-1.432 1.364-1.363 2.046.273 3.682 1.501 1.501 2.864 1.705 4.842.682zm100.723-.409c2.728-1.909 1.5-5.046-1.978-5.046-1.909 0-4.023 1.5-4.023 2.864 0 1.227 2.114 3.273 3.341 3.273.614 0 1.842-.477 2.66-1.091zm-130.66-7.569c1.636-1.978 1.977-3.683 1.159-6.138-.818-2.455-3.41-3.682-5.319-2.455-1.773 1.091-1.841 6.615-.137 8.32 1.774 1.773 2.933 1.773 4.297.273zm161.279-1.637c1.842-3.546.273-7.433-2.932-7.433-2.046 0-3.683 2.455-3.683 5.592 0 4.5 4.569 5.796 6.615 1.841zm-125.204-5.387c2.591-1.433.886-5.115-2.183-4.638-.818.137-1.841.75-2.25 1.432-.614 1.023-.477 1.501.886 2.592 1.842 1.5 1.842 1.5 3.547.614zm87.493-.41c1.364-.545 1.432-2.591.068-3.682-1.296-1.023-4.16-.409-4.705 1.091-.819 2.182 1.773 3.682 4.637 2.591zm20.39-5.592c1.637-1.432 1.227-3.614-.955-4.841-2.523-1.432-5.66.136-5.933 3.068-.341 3.478 3.751 4.501 6.888 1.773zm-125-.204c1.568-2.864-2.387-5.933-5.933-4.637-1.978.682-2.455 2.591-1.228 4.432 1.432 2.182 6.07 2.319 7.161.205zm23.527-9.07c1.773-.546 4.432-1.978 5.864-3.069 1.433-1.159 2.728-2.114 2.865-2.114.136 0 .136.887-.069 1.978-.545 3.682 1.16 2.932 2.319-.955 1.705-6.069 1.091-15.207-1.364-20.663-3.682-7.978-11.184-13.093-19.162-13.093-12.48 0-21.141 9.547-20.118 22.163.137 1.978.137 1.978 1.023-.75 3.955-12.48 14.116-18.958 25.027-15.957 3.819 1.091 3.615 1.704-.681 1.773-9.957.136-16.981 8.933-15.071 18.958 1.091 5.796 5.182 10.229 10.911 11.934 3.273.886 4.773.886 8.456-.205zm82.583-.955c11.593-5.933 10.775-23.39-1.227-28.437-1.432-.545-4.297-1.023-6.479-1.091l-3.955-.068 2.728-1.296c8.66-4.023 20.185 1.364 24.822 11.73.751 1.636 1.432 3.614 1.432 4.364.069 1.159.205 1.091.751-.341 1.704-4.228-1.228-12.138-6.274-16.639-5.592-5.047-13.435-6.547-20.8-4.024-4.705 1.569-10.433 7.433-12.547 12.821-2.114 5.455-2.319 16.912-.341 21.14l1.295 2.728.341-2.66.41-2.591 1.363 1.5c4.16 4.637 12.548 5.933 18.481 2.864zm-121.863-.545c1.977-2.455 1.909-6.683 0-8.047-2.864-1.978-6.069.886-6.069 5.524 0 4.159 3.614 5.66 6.069 2.523zm154.46.682c1.568-1.501 1.364-5.865-.273-7.638-1.568-1.637-4.023-1.978-5.319-.682-1.5 1.5-.955 5.865.887 7.706 1.909 1.978 3.205 2.114 4.705.614zm-83.606-33.484c.818-1.568-.137-4.296-1.501-4.296-2.114 0-3.136.887-3.136 2.66 0 1.023.204 2.114.477 2.318.886.955 3.546.478 4.16-.682zm12.548-.545c.545-1.296.545-1.91-.137-2.728-1.568-1.91-4.773-.818-4.773 1.705 0 2.864 3.682 3.682 4.91 1.023zm-19.368-7.979c1.296-1.296 1.023-4.5-.545-5.32-2.864-1.568-5.592 1.706-3.751 4.502 1.159 1.773 3.001 2.114 4.296.818zm25.641-.273c1.296-1.227 1.364-1.91.41-3.75-.887-1.637-4.433-1.774-5.047-.205-1.5 3.887 1.841 6.751 4.637 3.955zm-48.145-4.092c1.023-.681 1.5-1.636 1.5-3.068 0-1.705-.409-2.182-2.523-3.137-3-1.228-7.569-.887-10.092.75-1.91 1.228-2.251 3.887-.751 5.115 2.66 2.25 8.729 2.386 11.866.34zm76.037 1.023c2.728-.75 4.432-3.068 3.614-5.046-.682-1.773-5.114-3.273-8.865-2.864-5.933.545-7.842 5.114-3.137 7.433 2.728 1.432 4.705 1.5 8.388.477zm-62.671-7.16c1.501-1.432 1.364-4.092-.272-5.728-1.637-1.637-3.206-1.705-4.91-.205-1.637 1.432-1.569 3.955.136 5.66 1.637 1.637 3.614 1.773 5.046.273zm22.368-.682c1.023-2.182-.477-5.387-2.523-5.387-.75 0-1.773.818-2.319 1.841-1.432 2.455-.136 5.32 2.319 5.32 1.227 0 1.977-.546 2.523-1.774zm22.504.614c3.001-2.66-.068-8.183-3.546-6.342-2.182 1.16-3.001 3.955-1.705 5.865 1.228 1.909 3.478 2.114 5.251.477zm-34.915-6.615c1.091-1.364.613-3.819-.819-4.774-2.727-1.636-5.455 3-2.864 4.842 1.569 1.16 2.66 1.091 3.683-.068zm23.458.068c.819-.614 1.16-1.568.955-2.864-.204-1.773-.477-2.046-2.25-2.046-1.569 0-2.182.41-2.728 1.91-.546 1.636-.409 2.114.682 2.932 1.568 1.16 1.841 1.16 3.341.068zm-46.576-7.91c2.25-2.25 2.455-3.82.818-5.66-2.659-2.933-9.07.409-9.07 4.705 0 3.478 5.115 4.092 8.252.955zm73.445 1.159c1.5-1.5.955-4.433-1.296-6.274-2.523-2.114-4.91-2.25-6.819-.34-1.637 1.636-1.228 3.682 1.159 5.932 1.841 1.637 5.592 2.046 6.956.682zm-56.874-6.07c1.909-1.5 2.387-4.5.955-5.932-1.569-1.569-5.251-.955-7.433 1.16-1.092 1.09-1.978 2.454-1.978 3.068 0 3.069 5.319 4.16 8.456 1.705zm40.235.342c2.659-2.66-.341-7.093-4.91-7.093-3.069 0-4.228.955-4.228 3.478 0 3.751 6.478 6.274 9.138 3.615z" fill="#DA342C"/><path d="M246.256 125.012c-2.523-2.523-1.5-6.683 1.978-8.115 4.842-2.046 9.07 4.16 5.524 7.979-1.842 1.977-5.661 1.977-7.502.136zm73.241 1.364c-1.841-.682-3.683-3.273-3.683-4.978 0-.682.955-2.182 2.046-3.342 1.705-1.636 2.455-1.977 3.955-1.568 4.16 1.023 6.002 5.183 3.41 8.047-1.841 2.046-3.751 2.659-5.728 1.841zm60.147 29.324c.341-.341 3.069-2.114 6.07-3.888 8.456-5.046 15.889-11.183 30.005-24.754 14.253-13.707 21.754-20.186 27.96-24.345 15.889-10.639 32.597-14.048 57.624-11.73 10.979.955 26.186 1.023 31.028 0 6.001-1.227 16.435-4.705 21.141-7.092 4.978-2.455 10.092-5.865 16.912-11.32l5.182-4.092-.34 2.523c-.205 1.364-1.023 6.206-1.774 10.707-.75 4.5-1.5 9.479-1.704 11.115-.341 2.66-.751 3.206-4.569 5.865-5.183 3.751-13.162 7.706-21.55 10.843-12.343 4.569-20.799 6.206-37.711 7.297-28.028 1.773-40.712 6.205-67.854 23.663-3.137 2.046-8.183 4.91-11.252 6.41l-5.592 2.796 11.116-11.183c6.069-6.138 11.048-11.321 11.048-11.593 0-.546-7.161 3.614-14.662 8.456-8.115 5.251-24.141 13.093-32.256 15.821-8.32 2.727-19.777 5.455-18.822 4.501z" fill="#DA342C"/><path d="M333.613 364.306c-7.229-1.228-12.343-4.501-15.617-10.093-1.704-2.932-1.841-3.682-1.841-10.979 0-7.57.068-8.047 2.319-12.616 2.728-5.592 7.365-10.434 12.275-12.889l3.478-1.773v-3.41c0-2.932-.205-3.409-1.501-3.75-.886-.137-5.046-1.091-9.274-2.114-4.228-.955-7.842-1.637-7.91-1.569-.137.137-1.228 4.91-2.455 10.502-5.865 27.346-10.639 37.371-20.254 42.485-7.638 4.024-10.161 4.365-28.028 4.092-18.276-.341-20.39-.818-25.573-5.319-4.433-3.887-6.206-8.456-6.206-15.685.069-12.411 6.888-22.981 17.595-26.937l3.341-1.295-.409-7.843c-.614-11.184-3.001-24.822-6.615-38.257-3.478-12.547-3.273-12.275-7.979-13.98-8.797-3.136-15.139-8.728-18.821-16.571-2.114-4.364-2.183-4.91-2.183-13.093 0-8.047-.136-8.729-2.045-12.616-1.773-3.614-1.978-4.842-1.978-10.025 0-5.66-.068-5.932-1.773-6.683-3.887-1.773-15.48-10.024-19.845-14.184-3.273-3.069-5.387-5.728-6.887-8.934-2.251-4.5-2.251-4.5-2.182-14.729.068-11.389 1.5-21.073 5.114-34.234l2.114-7.706-4.433-4.228c-10.57-10.297-16.844-25.232-15.957-38.325.887-13.707 7.774-25.641 18.481-32.052 8.456-5.046 17.867-6.683 27.005-4.569 5.523 1.296 15.343 6.274 20.731 10.639 2.591 2.046 4.978 3.75 5.251 3.75.204 0 2.591-.818 5.114-1.773 15.89-6.069 33.961-8.32 51.078-6.41 10.638 1.228 18.617 3.205 29.119 7.297l3.205 1.227 2.25-2.114c7.57-7.024 17.458-11.865 27.21-13.23 16.98-2.454 34.438 9.752 39.757 27.824 4.501 15.48-1.023 34.097-14.184 47.531l-4.433 4.501.955 3.205c.545 1.773 1.636 6.138 2.387 9.684.818 3.546 1.568 6.547 1.704 6.751.614.546 10.707-8.32 24.005-21.208 15.889-15.412 25.164-22.709 35.12-27.619 17.117-8.524 33.279-10.98 57.488-8.797 15.207 1.364 19.708 1.364 27.141.068 13.503-2.318 24.823-8.456 36.348-19.572 3.409-3.273 7.296-6.41 8.66-7.024 6.956-2.864 14.253.682 16.162 7.91.819 3.002 0 14.663-1.704 23.46-.478 2.66-.682 4.978-.478 5.25.614.614 11.934 2.592 15.071 2.592 7.297.068 13.093 6.615 12.139 13.775-.546 3.819-3.137 7.297-12.275 16.367-7.024 6.956-8.047 8.252-7.706 9.684l.409 1.704 4.296-1.977c11.934-5.388 22.641-5.933 34.711-1.705 14.935 5.115 25.709 19.708 24.209 32.529-.545 4.569-3.546 10.843-6.478 13.707-1.364 1.364-4.297 3.273-6.547 4.296-3.546 1.568-4.569 1.773-9.547 1.5-6.479-.341-10.093-1.773-15.071-5.933-6.615-5.455-9.206-3.546-17.526 13.571-9.002 18.549-15.889 27.619-26.187 34.575-10.638 7.228-25.3 11.797-37.984 11.797-3.478 0-3.955.137-3.614 1.228.204.613.818 3.478 1.432 6.273 3.955 19.163 8.115 27.892 15.207 32.12 7.092 4.228 8.797 7.297 13.775 24.891 8.661 30.619 9.07 44.804 1.569 54.624-4.024 5.319-7.774 7.774-14.185 9.479-8.183 2.182-27.823 1.773-35.188-.751-14.389-4.91-17.185-24.345-5.455-37.37 1.568-1.773 2.114-2.796 1.636-3.273-.613-.614-18.958-7.911-20.867-8.32-.341-.068-1.637 3.887-2.864 8.729-3.342 13.093-8.32 25.436-12.48 30.824-.886 1.227-3.478 3.478-5.66 4.91-5.251 3.478-11.116 4.841-21.208 4.841-15.412 0-23.528-1.977-28.437-6.887-5.729-5.66-6.684-16.162-2.387-25.096 2.182-4.432 7.637-10.161 11.388-11.934l2.66-1.227-5.115-3.274c-2.728-1.841-6.546-4.705-8.456-6.41-1.909-1.773-3.887-3.137-4.364-3.137-1.16 0-17.663 4.569-18.14 4.978-.136.205-3.069 9.479-6.41 20.663-6.411 21.209-7.979 24.823-12.616 28.915-2.933 2.523-7.638 4.978-12.48 6.41-2.932.887-6.615 1.091-17.048 1.023-7.365-.068-15.003-.341-17.049-.682zm35.802-10.979c3.683-1.978 7.433-5.729 8.593-8.661.681-1.773 8.66-28.437 11.661-38.939l1.636-5.796 9.82-2.524c5.388-1.364 12.003-3.273 14.594-4.16l4.774-1.636 5.523 5.251c3.205 3.069 8.184 6.887 12.139 9.206 8.32 4.978 9.547 6.41 8.933 10.57-.75 4.842-1.705 6.342-4.637 6.956-8.32 1.705-14.184 8.797-14.252 17.185-.069 6.342 2.864 8.797 11.865 9.956 6.752.887 17.458.819 21.618-.068 4.364-.886 8.592-3.751 11.047-7.433 1.023-1.569 3.137-6.001 4.638-9.752 2.864-7.365 7.569-25.164 7.569-28.573 0-1.091-.955-4.16-2.114-6.82-1.159-2.591-1.977-4.842-1.841-4.978.136-.136 2.387 1.159 4.978 2.864 6.547 4.228 16.912 9.07 26.05 12.071 4.228 1.432 8.388 3.137 9.343 3.887 1.705 1.364 5.456 8.319 6.206 11.593.409 1.5.068 1.909-2.251 2.932-10.57 4.774-13.229 19.299-4.501 24.414 3.001 1.773 12.821 2.796 22.095 2.386 9.616-.477 12.48-1.363 16.094-4.978 5.729-5.728 6.547-13.639 3.069-30.278-2.25-10.706-6.888-27.21-8.933-31.847-.819-1.909-2.387-3.614-4.501-5.114-11.593-7.911-15.003-14.73-21.072-41.803-1.637-7.502-3.205-14.253-3.41-15.003-.409-1.296-.068-1.364 12.411-1.364 11.252 0 13.435-.205 18.14-1.569 14.253-4.091 23.936-10.979 31.847-22.64 1.432-2.046 5.387-9.343 8.865-16.23 8.865-17.526 13.366-22.163 21.549-22.095 4.092 0 5.524.682 9.82 4.228 6.752 5.524 10.843 6.478 16.299 3.614 2.796-1.432 4.091-2.659 5.319-4.91 6.137-11.661-6.274-26.937-24.073-29.528-14.048-2.046-29.187 5.387-38.87 18.958-1.705 2.319-5.524 9.411-8.525 15.685-3 6.205-6.615 13.093-8.047 15.207-8.387 12.275-20.526 17.799-37.302 16.844-11.798-.682-22.64-4.501-29.937-10.638-11.389-9.684-26.732-12.889-51.487-10.98-5.455.41-16.639.955-24.891 1.16l-15.003.341 8.252-4.024c9.206-4.501 13.707-7.297 27.891-17.185 12.071-8.456 18.754-12.411 26.119-15.412 10.638-4.432 11.934-4.569 41.394-4.705 21.686-.068 27.687-.273 32.392-1.228 21.345-4.159 37.575-12.616 52.373-27.414 9.889-9.956 10.025-11.32 1.16-12.275-5.183-.545-15.549-3-20.049-4.841-2.046-.819-2.728-1.432-2.524-2.25 1.16-3.751 3.274-19.914 3.41-25.642.068-9.002-.409-9.138-8.524-1.432-11.934 11.389-25.232 18.617-39.826 21.618-5.592 1.159-19.231 1.159-34.506 0-10.229-.819-14.116-.819-20.117-.205-19.027 2.114-34.098 9.07-50.055 23.254-2.796 2.455-10.297 9.547-16.708 15.753-6.342 6.206-13.911 13.162-16.775 15.48-4.706 3.683-14.867 10.434-15.753 10.434-.205 0-.546-1.841-.819-4.16-.682-7.024-3.75-20.867-6.205-28.437-1.296-3.955-2.251-7.297-2.183-7.297.069-.068 1.773-1.227 3.683-2.659 9.07-6.479 16.503-18.276 18.071-28.505 2.524-16.98-7.637-32.325-23.39-35.325-2.046-.41-5.047-.546-6.751-.273-7.638 1.091-17.39 6.342-25.164 13.57-2.319 2.047-4.296 3.752-4.569 3.752-.205 0-2.864-1.228-5.933-2.66-23.05-11.116-56.329-10.911-80.128.34-5.661 2.729-4.433 3.138-12.275-3.614-5.251-4.432-11.321-7.978-16.708-9.82-3.273-1.09-5.456-1.363-10.025-1.159-7.365.273-12.138 2.387-17.457 7.638-15.685 15.753-10.093 43.03 11.865 57.692l1.569 1.023-2.046 6.07c-5.251 15.275-8.797 39.621-7.092 48.213.273 1.705 1.978 3.819 5.933 7.842 6.274 6.206 11.32 9.684 21.276 14.662l6.888 3.41-1.637 3.137c-2.796 5.524-1.704 13.093 2.319 16.776 1.296 1.091 1.296 1.5.477 6.137-.477 2.66-.886 6.615-.886 8.661-.068 9.274 7.16 16.776 19.64 20.185l4.16 1.16 1.773 5.523c6.001 18.89 9.752 39.689 10.297 56.874l.409 12.412h-2.728c-5.66 0-11.729 3.273-14.866 8.047-2.319 3.546-3.955 10.502-3.41 14.32.614 4.297 3.615 7.229 8.456 8.252 1.978.409 9.616.75 16.981.818 14.593 0 17.253-.477 21.754-3.887 4.023-3.069 6.274-6.956 9.07-15.753 2.796-8.66 6.751-25.777 8.251-35.12.478-3.341 1.091-5.319 1.637-5.319.477 0 2.182.477 3.819 1.023 5.046 1.773 16.025 4.433 23.663 5.66l7.297 1.228.205 11.388.136 11.32-1.841.41c-4.978 1.091-8.252 2.796-11.184 5.796-3.819 3.887-5.388 8.115-5.388 14.389 0 4.228.205 4.91 2.046 6.956 1.91 2.182 4.433 3.273 9.548 4.16.954.136 7.842.204 15.343.136 13.366-.068 13.707-.068 17.117-1.909z" fill="#F0A430"/><path d="M338.046 349.644c-.819-2.114-.41-7.16.954-10.638 1.432-3.819 1.296-4.978-.341-2.864-2.25 2.864-3.887 6.751-4.228 10.161-.341 3.546-.409 3.614-1.977 2.932-3.069-1.432-3.478-8.047-.819-13.161 2.251-4.229 6.82-7.093 12.48-7.638 3.546-.341 3.614-.409 4.023-2.864.682-4.092.478-22.777-.341-28.437-1.091-7.979-3.682-16.231-7.433-23.8-5.728-11.593-6.478-11.593-2.796 0 3.274 9.956 6.001 21.276 5.319 21.958-.545.478-15.684-2.386-22.981-4.296-23.186-6.274-43.235-18.003-54.76-32.188-3.955-4.91-7.297-9.547-7.297-10.365 0-.205 2.387-.068 5.319.409 7.433 1.228 25.164 1.159 34.302-.136 41.735-5.797 72.832-28.642 82.583-60.557l1.432-4.637 4.16.409c12.343 1.228 40.576 1.228 60.966.068 22.981-1.295 28.914-1.023 37.916 1.773l4.501 1.364-1.432 2.728c-1.841 3.682-1.841 9.138-.068 12.684 1.841 3.614 6.683 7.911 10.57 9.411 4.16 1.568 9.956 1.159 12.752-.887l2.046-1.5 1.978 3.955c2.659 5.32 4.978 13.025 8.183 28.028 5.66 25.709 10.093 34.916 20.39 42.008 5.796 3.955 6.206 4.705 10.706 22.504 6.683 26.187 6.752 35.188.273 40.03-2.523 1.91-10.502 2.796-20.117 2.319-12.275-.614-13.912-1.501-13.912-7.365 0-5.047 4.024-9.684 10.093-11.593 2.455-.75 2.864-1.16 2.864-2.796 0-2.66-3.751-12.071-6.206-15.412-2.727-3.819-4.909-5.047-14.934-8.388-16.23-5.387-27.551-12.411-39.28-24.482-6.683-6.956-15.139-18.208-18.481-24.686-.886-1.841-1.773-3.205-1.977-3.069-.819.818 4.023 12.343 7.774 18.481l2.728 4.501-2.455.409c-7.365 1.159-16.572 3.887-32.461 9.683-15.48 5.66-34.097 11.116-34.915 10.229-.137-.136.545-3.614 1.568-7.706 2.455-10.16 2.66-21.685.341-28.232-2.182-6.342-3-7.297-2.387-2.728.341 2.046.478 7.297.478 11.593-.137 6.752-.478 9.275-2.865 18.481-3.955 15.139-15.752 55.101-17.184 57.897-2.592 5.115-7.434 7.433-15.481 7.501h-5.66v-3.955c0-2.864.478-4.91 1.637-7.16 1.978-3.956 1.296-4.092-1.841-.478-2.387 2.796-3.887 6.615-3.887 9.82 0 1.773-.069 1.773-4.706 1.773-3.682 0-4.773-.272-5.114-1.091zm20.594-34.438c.205-1.568-.136-2.523-.954-3.137-1.637-1.159-2.114-1.091-3.683.478-1.773 1.773-1.705 3.75.068 5.523 1.228 1.228 1.569 1.296 2.864.409.955-.613 1.569-1.841 1.705-3.273zm15.344-3.478c1.909-2.523 1.023-5.524-1.705-5.865-3.273-.409-5.183 4.229-2.796 6.82 1.501 1.637 2.796 1.364 4.501-.955zm-9.07-11.456c2.728-2.728 2.592-7.365-.341-9.275-2.114-1.364-4.16-.75-5.455 1.773-1.432 2.728-1.296 4.978.409 7.092 1.637 2.114 3.546 2.251 5.387.41zm155.074-1.092c3.137-3.068-1.637-8.387-6.001-6.683-.682.273-1.091 1.228-1.091 2.728 0 1.91.409 2.592 2.25 3.683 2.66 1.636 3.478 1.704 4.842.272zm18.413 0c.613-.545 1.091-1.841 1.091-2.727 0-1.705-2.728-5.047-4.092-5.047-3.682 0-4.774 4.978-1.637 7.433 2.183 1.705 3.205 1.773 4.638.341zm-157.257-9.342c1.705-1.364 3.547-5.865 3.547-8.524 0-2.933-1.842-5.933-4.092-6.615-1.978-.614-5.456 1.5-6.547 4.091-.545 1.296-.954 3.887-.954 5.797 0 2.796.34 3.819 1.773 5.183 1.773 1.841 4.159 1.841 6.273.068zm117.363-6.001c2.25-.819 4.16-3.546 4.16-6.07 0-1.909-2.251-6.137-4.228-7.91-4.433-4.092-10.707-4.978-13.776-1.91-4.159 4.228-.818 12.412 6.411 15.549 2.864 1.227 4.569 1.364 7.433.341zm24.209-.682c1.023-.478 2.046-1.773 2.455-3.069 2.114-6.41-7.706-14.525-11.934-9.82-1.569 1.773-1.5 6.547.204 8.797 1.501 2.046 5.388 4.842 6.683 4.842.478 0 1.637-.341 2.592-.75zm-165.235-4.024c1.841-1.023 4.023-5.66 4.023-8.524 0-2.864-1.5-6.137-3.068-6.751-2.592-.955-4.978-.409-6.683 1.568-2.796 3.342-3.137 9.07-.75 12.889 1.091 1.637 4.159 2.046 6.478.818zm22.641-18.344c6.342-6.206.75-19.572-6.138-14.73-2.182 1.569-3.887 6.547-3.41 10.366.273 2.523.819 3.682 2.524 5.182 2.523 2.251 4.091 2.046 7.024-.818zm135.092-4.228c.955-.477 2.251-1.909 2.865-3.205 3.137-6.615-2.865-19.981-9.752-21.686-8.593-2.182-10.434 12.48-2.728 21.277 3.751 4.228 6.206 5.182 9.615 3.614zm-32.733-3.41c7.024-8.319-9.411-31.028-17.185-23.8-4.296 4.024-2.25 14.662 4.024 21.141 5.046 5.182 10.161 6.205 13.161 2.659zm-70.172-4.296c3.751-1.568 4.91-5.387 2.387-7.911-1.909-1.909-6.683-1.841-9.138.069-2.455 1.909-2.455 5.455 0 7.365 2.114 1.705 3.546 1.773 6.751.477zm-51.896-1.159c2.524-1.978 3.956-5.115 4.024-8.866.068-3.75-1.432-6.41-3.955-7.024-3.888-.954-8.525 4.297-8.525 9.752 0 6.479 4.16 9.479 8.456 6.138zm86.13-8.252c.886-.818 1.568-2.046 1.568-2.796 0-3.887-5.523-5.251-8.524-2.182-1.978 1.909-2.114 2.864-.614 4.978 1.432 2.046 5.388 2.046 7.57 0zm46.508-8.32c1.432-1.773 1.637-5.523.41-8.115-1.364-2.932-2.865-4.296-5.251-4.91-2.524-.613-5.32 2.114-5.32 5.251 0 2.319 2.046 6.342 4.024 7.843 1.5 1.159 5.183 1.091 6.137-.069zm-98.472-2.182c3.75-1.977 5.319-4.364 5.319-7.978-.205-10.775-14.73-17.254-23.936-10.639-3.819 2.728-4.638 8.388-1.773 12.616 2.25 3.273 3.137 3.955 7.433 6.138 4.091 2.045 8.865 1.977 12.957-.137zm34.233.341c5.729-2.796 7.365-7.91 3.683-11.593-1.978-1.909-3.751-2.387-8.252-1.977-4.228.341-8.115 4.023-8.66 8.115-.341 2.386-.137 3 1.704 4.841 1.705 1.705 2.592 2.046 5.32 2.046 1.909 0 4.5-.613 6.205-1.432zm37.234-16.435c6.479-1.909 9.411-7.706 6.752-13.229-4.092-8.32-17.731-11.662-27.687-6.82-4.637 2.319-6.547 4.774-6.547 8.593 0 4.773 3.819 8.66 10.979 11.184 3.615 1.227 12.685 1.432 16.503.272zm-46.849-7.774c3-1.432 4.364-3.409 4.364-6.274 0-6.683-7.16-11.593-15.957-10.911-7.365.614-11.252 4.092-10.297 9.138.545 2.933 4.364 6.683 8.115 8.047 3.887 1.364 10.911 1.364 13.775 0z" fill="#F0A430"/><path d="M255.053 346.166c-.886-2.318-.136-8.388 1.432-11.456 1.432-2.865.887-3.069-1.5-.478-2.319 2.387-3.955 6.479-3.955 9.752 0 1.5-.205 2.66-.478 2.66-1.432-.069-2.455-1.501-3-4.16-1.023-5.388 1.432-10.843 6.274-14.048 2.318-1.501 3.819-1.91 8.388-2.251l5.523-.341V299.93l2.046-1.363c2.455-1.705 4.024-5.865 3.41-9.138-.546-2.933-3.751-6.206-6.069-6.206-1.433 0-1.773-.409-2.114-2.523-.273-1.432-1.296-6.206-2.319-10.57-1.091-4.433-1.909-8.047-1.841-8.047.068 0 2.727 2.591 6.001 5.728 8.115 7.706 16.025 13.161 26.868 18.549 5.592 2.796 9.138 4.978 9.138 5.592 0 2.046-2.864 17.662-4.159 22.981-2.251 8.934-6.615 23.254-7.638 25.369-2.66 5.046-6.956 7.092-15.958 7.569l-7.024.341-.068-1.637c-.204-4.296.273-6.683 1.841-9.751l1.637-3.342-1.5 1.023c-2.933 1.909-5.456 6.342-5.865 10.025l-.341 3.477h-4.023c-3.683 0-4.024-.136-4.706-1.841zm35.802-27.209c1.296-1.228 1.432-3.751.273-4.91-1.432-1.432-3.887-.955-4.774.886-1.636 3.615 1.842 6.683 4.501 4.024zm-14.866-2.183c1.364-.954 1.705-3.068.614-4.637-1.842-2.864-5.115-1.705-5.115 1.773 0 2.796 2.387 4.297 4.501 2.864zm11.934-13.025c1.296-1.023 1.637-1.977 1.637-4.364 0-3.683-1.705-5.933-4.501-5.933-4.024 0-5.592 6.683-2.319 9.888 1.978 2.046 3.069 2.114 5.183.409zm155.074 42.213c-7.638-.75-9.138-1.228-9.616-3.205-1.091-4.229 1.637-9.82 6.07-12.548 1.227-.682 3.819-1.637 5.796-2.114 4.092-.887 4.842-1.842 6.274-7.911 1.228-5.251.614-9.342-1.773-11.797-1.091-1.16-4.91-3.887-8.593-6.138-5.932-3.614-14.866-10.911-14.866-12.138 0-1.023 24.005-9.343 30.688-10.571 9.001-1.704 9.206-1.704 13.57 3.137 3.205 3.546 3.955 4.842 4.637 8.184.478 2.182 1.569 5.728 2.524 7.842 1.023 2.114 1.773 5.046 1.773 6.615 0 5.455-6.001 26.186-9.548 33.142-1.568 3.001-3.818 5.115-6.819 6.342-3.001 1.296-13.025 1.842-20.117 1.16zm83.401-128.478c-2.523-.41-4.705-.955-4.841-1.092-.137-.204-.819-1.704-1.569-3.409-.682-1.637-2.455-4.842-3.887-7.092-2.455-3.683-2.523-3.956-1.023-3.547 2.728.819 13.775 3.137 15.003 3.137.614 0 2.046.955 3.137 2.046 1.636 1.637 2.659 2.046 4.91 2.046 2.387 0 3.273-.409 5.455-2.66 1.705-1.704 3.478-2.796 5.183-3.136 3.955-.682 10.979-4.092 15.003-7.229 2.796-2.182 6.683-6.479 9.615-10.775.137-.136.819.273 1.501.887 2.25 2.046 5.932 1.705 8.456-.819 1.909-1.909 2.182-2.659 2.182-5.66 0-3.546-.478-4.228-4.16-6.478-1.228-.75-1.091-1.159 1.978-7.365 2.864-5.933 3.341-6.547 4.5-5.865 2.66 1.364 5.524.818 7.979-1.637 1.91-1.909 2.319-2.796 2.319-5.319 0-1.636-.478-3.614-1.023-4.432-.955-1.364-.887-1.569 1.637-3.546 2.727-2.183 10.638-6.206 12.206-6.206.409 0 .819.75.819 1.705 0 .954.886 2.659 1.977 3.887 2.728 3.069 6.274 3.069 9.002 0 1.296-1.432 1.978-2.933 1.978-4.296 0-1.978.068-2.046 2.182-1.637 2.864.682 7.774 2.796 8.319 3.614.955 1.569-1.773 7.638-5.046 11.252l-3.341 3.683-3.615-1.228c-4.364-1.5-8.115-1.636-12.206-.409-1.705.546-3.683.75-4.433.477-.682-.272-2.046-.204-3.001.137-1.636.614-1.636.682-.409 1.568 1.228.955 1.159 1.091-1.159 3.683-3.546 3.955-6.41 8.797-12.275 20.594-5.183 10.502-9.547 17.117-14.321 21.686l-2.455 2.319-1.841-1.5c-5.047-3.956-13.366.818-12.343 7.16.477 2.66-.137 3.069-6.342 4.501-2.865.682-3.342.545-5.729-1.091-1.432-.955-3.205-1.773-3.955-1.773-2.046 0-5.183 1.909-5.66 3.409-.477 1.637-3.41 1.705-10.707.41zm-250.341-12.753c-3.069-.682-7.501-2.932-10.434-5.183-1.227-.886-7.024-3.205-12.957-5.114-20.185-6.41-33.074-12.275-43.439-19.708-7.57-5.388-11.048-9.275-11.662-12.821-.545-3.614 1.228-20.731 3.001-28.71 3.341-15.207 9.888-33.551 15.412-43.44l2.387-4.227-1.569-.41c-.886-.136-2.796-.409-4.296-.477l-2.728-.205 1.978-1.909c1.159-1.023 3.137-2.046 4.637-2.25 1.432-.273 2.591-.682 2.591-.955 0-.205-1.568-1.16-3.409-2.046-3.069-1.432-3.342-1.705-2.455-2.591 1.5-1.5 7.637-1.773 11.661-.546 1.841.546 3.478.887 3.682.682.614-.614-7.092-7.91-11.524-10.775-6.752-4.432-10.775-5.66-15.071-4.5-6.479 1.773-10.093 8.251-9.207 16.639.751 6.342 5.388 15.412 10.502 20.458l4.16 4.092-1.364 2.591-1.364 2.66-2.045-1.228c-3.41-1.977-9.138-7.842-12.071-12.275-4.16-6.546-5.796-12.48-5.455-20.117.272-5.796.477-6.82 2.932-11.388 4.637-8.797 11.32-12.753 20.595-12.207 5.728.34 10.433 2.25 17.048 6.751 3.41 2.387 10.639 8.66 11.048 9.684.136.34-.614 1.5-1.705 2.591-1.023 1.091-1.773 1.978-1.569 1.978.205 0 3.956-1.842 8.388-4.092 11.184-5.66 26.391-10.23 34.097-10.23h2.251l-.068 4.91c0 7.298 2.659 11.457 7.296 11.457 4.706 0 7.229-4.16 7.297-12.002v-4.773l4.637.545c10.843 1.296 21.209 4.57 33.007 10.502 7.228 3.615 8.046 3.683 5.182.478-1.364-1.432-1.364-1.432 1.842-4.433 5.182-4.706 10.57-8.593 15.343-10.98 4.024-1.977 5.047-2.182 10.57-2.182 7.229 0 11.116 1.5 15.753 6.138 4.501 4.5 6.615 9.752 6.956 17.117.409 9.07-1.773 15.82-7.501 23.117-2.523 3.274-10.502 10.571-11.525 10.571-.273 0-1.159-1.091-1.91-2.455l-1.5-2.455 4.433-4.637c12.479-13.23 13.843-30.824 2.796-36.143-3.956-1.91-7.024-1.569-13.23 1.432-3 1.5-6.274 3.955-9.888 7.5-3.001 2.933-5.319 5.525-5.115 5.661.205.205 1.978-.068 4.024-.614 4.364-1.159 7.433-1.295 9.82-.34 2.591.954 2.182 1.84-1.637 3.477-3.751 1.637-3.887 2.319-.409 2.933 2.319.409 5.865 2.727 5.865 3.75 0 .341-1.569.75-3.41.887-1.91.204-3.546.477-3.751.614-.136.204 1.228 3.205 3.001 6.75 6.887 13.435 12.889 31.37 15.412 45.964 1.432 8.456 2.591 21.413 2.046 24.072-.955 5.32-13.639 15.344-27.687 21.959-7.911 3.682-20.731 8.456-30.62 11.32-3.546 1.023-7.706 2.728-9.206 3.751-4.228 2.864-7.842 4.569-11.797 5.387-4.16.887-14.321.887-18.072 0zm2.387-19.572c1.023-.409 3.069-1.841 4.501-3.205l2.727-2.386 2.251 2.114c8.456 7.91 21.276 6.137 26.118-3.615 1.023-2.046 1.773-4.705 1.773-6.274v-2.796l-1.636 3.41c-5.115 10.775-17.185 13.162-24.141 4.706-1.773-2.114-2.182-3.274-2.182-5.797v-3.137l4.978-2.455c5.455-2.728 12.207-8.32 13.843-11.593 1.569-3 .887-7.297-2.455-15.685-2.796-7.024-4.637-10.229-3.341-5.864 1.159 4.023 2.659 12.479 2.659 15.207 0 1.978-.204 2.523-.954 2.25-7.57-2.932-27.551-3-33.075-.136-2.045 1.023-2.114 1.023-2.114-.477.069-1.432 2.114-13.639 3.001-17.594.75-3.069-2.864 4.978-4.706 10.433-2.045 6.411-2.182 10.298-.409 13.23 1.91 3.069 7.706 7.501 13.435 10.229l4.841 2.319-.341 3.546c-.409 4.364-2.455 7.297-6.478 9.274-7.433 3.615-15.617.137-19.708-8.388l-1.978-4.16.341 3.547c1.091 11.388 12.071 17.73 23.05 13.297zm-57.556-10.092c4.228-2.933-1.432-10.911-6.479-9.07-3.478 1.296-2.114 7.365 2.046 9.138 2.728 1.227 2.592 1.227 4.433-.068zm135.911-1.637c4.16-4.092 1.159-9.002-4.16-6.819-2.864 1.227-4.637 4.705-3.546 7.16 1.159 2.523 4.978 2.387 7.706-.341zm-119.34-2.046c1.432-.818 1.705-3.41.477-4.637-1.159-1.159-4.364-1.023-5.592.273-1.432 1.364-1.363 2.046.273 3.682 1.501 1.501 2.864 1.705 4.842.682zm100.723-.409c2.728-1.909 1.5-5.046-1.978-5.046-1.909 0-4.023 1.5-4.023 2.864 0 1.227 2.114 3.273 3.341 3.273.614 0 1.842-.477 2.66-1.091zm-130.66-7.57c1.636-1.977 1.977-3.682 1.159-6.137-.818-2.455-3.41-3.683-5.319-2.455-1.773 1.091-1.841 6.615-.136 8.32 1.773 1.773 2.932 1.773 4.296.272zm160.461-.545c1.841-1.773 2.25-4.91 1.023-7.229-1.023-1.841-4.365-1.705-5.728.205-2.114 3-.751 8.729 2.114 8.729.545 0 1.704-.75 2.591-1.705zm-124.386-6.479c2.591-1.432.886-5.114-2.183-4.637-.818.137-1.841.75-2.25 1.432-.614 1.023-.477 1.501.886 2.592 1.842 1.5 1.842 1.5 3.547.613zm87.493-.409c1.364-.545 1.432-2.591.068-3.682-1.296-1.023-4.16-.409-4.705 1.091-.819 2.182 1.773 3.682 4.637 2.591zm20.39-5.592c1.637-1.432 1.227-3.614-.955-4.841-2.523-1.433-5.66.136-5.933 3.068-.341 3.478 3.751 4.501 6.888 1.773zm-125-.204c1.568-2.864-2.387-5.933-5.933-4.637-1.978.682-2.455 2.591-1.228 4.432 1.432 2.182 6.07 2.319 7.161.205zm26.05-9.888c1.227-.614 3.069-1.91 4.16-2.865l1.841-1.773v2.183c0 3.546 1.228 3.137 2.455-.887 1.705-6.069 1.091-15.207-1.364-20.663-3.682-7.979-11.184-13.093-19.162-13.093-12.48 0-21.004 9.343-20.186 22.163.136 1.773.341 1.432 1.705-2.182.886-2.387 1.978-4.842 2.523-5.456 2.455-3.341 6.001-6.615 8.456-7.842 3.819-1.978 10.775-2.319 14.185-.75l2.591 1.227-3.955.068c-9.002.137-15.412 6.684-15.48 15.617 0 7.297 3.955 12.889 10.774 15.071 3.342 1.091 8.388.75 11.457-.818zm80.06-.137c14.457-7.433 8.934-29.46-7.365-29.664-4.023 0-4.092-.069-2.182-1.023 3-1.569 9.684-1.841 12.889-.546 6.41 2.728 11.524 8.252 13.366 14.662.818 2.728.886 2.796 1.5 1.364 1.568-4.296-1.5-12.139-6.41-16.571-5.592-5.047-13.435-6.547-20.8-4.024-4.705 1.569-10.433 7.433-12.547 12.821-2.114 5.455-2.319 16.912-.341 21.14l1.295 2.728.341-2.66.41-2.591 1.363 1.5c4.16 4.637 12.548 5.933 18.481 2.864zm-121.863-.545c1.978-2.455 1.909-6.683 0-8.047-2.864-1.978-6.069.886-6.069 5.523 0 4.16 3.614 5.661 6.069 2.524zm154.46.682c1.568-1.501 1.364-5.865-.273-7.638-1.568-1.637-4.023-1.978-5.319-.682-1.5 1.5-.955 5.865.887 7.706 1.909 1.977 3.205 2.114 4.705.614zm-83.606-33.484c.818-1.568-.137-4.296-1.501-4.296-2.114 0-3.136.886-3.136 2.66 0 1.022.204 2.114.477 2.318.886.955 3.546.477 4.16-.682zm12.548-.545c.545-1.296.545-1.91-.137-2.728-1.568-1.91-4.773-.818-4.773 1.705 0 2.864 3.682 3.682 4.91 1.023zm-19.368-7.98c1.296-1.295 1.023-4.5-.545-5.318-2.864-1.569-5.592 1.705-3.751 4.5 1.159 1.774 3.001 2.115 4.296.819zm25.641-.272c1.296-1.227 1.364-1.91.41-3.75-.887-1.637-4.433-1.774-5.047-.205-1.5 3.887 1.841 6.751 4.637 3.955zm-48.145-4.092c1.023-.681 1.5-1.636 1.5-3.068 0-1.705-.409-2.182-2.523-3.137-3-1.228-7.569-.887-10.092.75-1.91 1.227-2.251 3.887-.751 5.115 2.66 2.25 8.729 2.386 11.866.34zm76.037 1.023c2.728-.75 4.433-3.068 3.614-5.046-.682-1.773-5.114-3.273-8.865-2.864-5.933.545-7.842 5.114-3.137 7.433 2.728 1.432 4.705 1.5 8.388.477zm-62.671-7.16c1.501-1.432 1.364-4.092-.272-5.728-1.637-1.637-3.206-1.705-4.91-.205-1.637 1.432-1.569 3.955.136 5.66 1.637 1.637 3.614 1.773 5.046.273zm22.368-.682c1.023-2.182-.477-5.387-2.523-5.387-.75 0-1.773.818-2.319 1.84-1.432 2.456-.136 5.32 2.319 5.32 1.227 0 1.977-.546 2.523-1.773zm22.504.614c3.001-2.66-.068-8.183-3.546-6.342-2.182 1.159-3 3.955-1.705 5.864 1.228 1.91 3.478 2.114 5.251.478zm-34.915-6.615c1.091-1.364.613-3.819-.819-4.774-2.727-1.636-5.455 3-2.864 4.842 1.569 1.16 2.66 1.091 3.683-.068zm23.459.068c.818-.614 1.159-1.568.954-2.864-.204-1.773-.477-2.046-2.25-2.046-1.569 0-2.182.41-2.728 1.91-.546 1.636-.409 2.114.682 2.932 1.568 1.16 1.841 1.16 3.342.068zm-46.577-7.91c2.25-2.25 2.455-3.82.818-5.66-2.659-2.933-9.07.409-9.07 4.705 0 3.478 5.115 4.091 8.252.955zm73.445 1.159c1.5-1.5.955-4.433-1.296-6.274-2.523-2.114-4.91-2.25-6.819-.341-1.637 1.637-1.228 3.683 1.159 5.933 1.842 1.637 5.592 2.046 6.956.682zm-56.874-6.07c1.909-1.5 2.387-4.5.955-5.932-1.569-1.569-5.251-.955-7.433 1.159-1.092 1.091-1.978 2.455-1.978 3.069 0 3.069 5.319 4.16 8.456 1.705zm40.235.342c2.659-2.66-.341-7.093-4.91-7.093-3.069 0-4.228.955-4.228 3.478 0 3.751 6.478 6.274 9.138 3.615z" fill="#F0A430"/><path d="M333.613 364.306c-7.229-1.228-12.343-4.501-15.617-10.093-1.704-2.932-1.841-3.682-1.841-10.979 0-7.57.068-8.047 2.319-12.616 2.728-5.592 7.365-10.434 12.275-12.889l3.478-1.773v-3.41c0-2.932-.205-3.409-1.501-3.75-.886-.137-5.046-1.091-9.274-2.114-4.228-.955-7.842-1.637-7.91-1.569-.137.137-1.228 4.91-2.455 10.502-5.865 27.346-10.639 37.371-20.254 42.485-7.638 4.024-10.161 4.365-28.028 4.092-18.276-.341-20.39-.818-25.573-5.319-4.433-3.887-6.206-8.456-6.206-15.685.069-12.411 6.888-22.981 17.595-26.937l3.341-1.295-.409-7.843c-.614-11.184-3.001-24.822-6.615-38.257-3.478-12.547-3.273-12.275-7.979-13.98-8.797-3.136-15.139-8.728-18.821-16.571-2.114-4.364-2.183-4.91-2.183-13.093 0-8.047-.136-8.729-2.045-12.616-1.773-3.614-1.978-4.842-1.978-10.025 0-5.66-.068-5.932-1.773-6.683-3.887-1.773-15.48-10.024-19.845-14.184-3.273-3.069-5.387-5.728-6.887-8.934-2.251-4.5-2.251-4.5-2.182-14.729.068-11.389 1.5-21.073 5.114-34.234l2.114-7.706-4.433-4.228c-10.57-10.297-16.844-25.232-15.957-38.325.887-13.707 7.774-25.641 18.481-32.052 8.456-5.046 17.867-6.683 27.005-4.569 5.523 1.296 15.343 6.274 20.731 10.639 2.591 2.046 4.978 3.75 5.251 3.75.204 0 2.591-.818 5.114-1.773 15.89-6.069 33.961-8.32 51.078-6.41 10.638 1.228 18.617 3.205 29.119 7.297l3.205 1.227 2.25-2.114c7.57-7.024 17.458-11.865 27.21-13.23 16.98-2.454 34.438 9.752 39.757 27.824 4.501 15.48-1.023 34.097-14.184 47.531l-4.433 4.501.955 3.205c.545 1.773 1.636 6.138 2.387 9.684.818 3.546 1.568 6.547 1.704 6.751.614.546 10.707-8.32 24.005-21.208 15.889-15.412 25.164-22.709 35.12-27.619 17.117-8.524 33.279-10.98 57.488-8.797 15.207 1.364 19.708 1.364 27.141.068 13.503-2.318 24.823-8.456 36.348-19.572 3.409-3.273 7.296-6.41 8.66-7.024 6.956-2.864 14.253.682 16.162 7.91.819 3.002 0 14.663-1.704 23.46-.478 2.66-.682 4.978-.478 5.25.614.614 11.934 2.592 15.071 2.592 7.297.068 13.093 6.615 12.139 13.775-.546 3.819-3.137 7.297-12.275 16.367-7.024 6.956-8.047 8.252-7.706 9.684l.409 1.704 4.296-1.977c11.934-5.388 22.641-5.933 34.711-1.705 14.935 5.115 25.709 19.708 24.209 32.529-.545 4.569-3.546 10.843-6.478 13.707-1.364 1.364-4.297 3.273-6.547 4.296-3.546 1.568-4.569 1.773-9.547 1.5-6.479-.341-10.093-1.773-15.071-5.933-6.615-5.455-9.206-3.546-17.526 13.571-9.002 18.549-15.889 27.619-26.187 34.575-10.638 7.228-25.3 11.797-37.984 11.797-3.478 0-3.955.137-3.614 1.228.204.613.818 3.478 1.432 6.273 3.955 19.163 8.115 27.892 15.207 32.12 7.092 4.228 8.797 7.297 13.775 24.891 8.661 30.619 9.07 44.804 1.569 54.624-4.024 5.319-7.774 7.774-14.185 9.479-8.183 2.182-27.823 1.773-35.188-.751-14.389-4.91-17.185-24.345-5.455-37.37 1.568-1.773 2.114-2.796 1.636-3.273-.613-.614-18.958-7.911-20.867-8.32-.341-.068-1.637 3.887-2.864 8.729-3.342 13.093-8.32 25.436-12.48 30.824-.886 1.227-3.478 3.478-5.66 4.91-5.251 3.478-11.116 4.841-21.208 4.841-15.412 0-23.528-1.977-28.437-6.887-5.729-5.66-6.684-16.162-2.387-25.096 2.182-4.432 7.637-10.161 11.388-11.934l2.66-1.227-5.115-3.274c-2.728-1.841-6.546-4.705-8.456-6.41-1.909-1.773-3.887-3.137-4.364-3.137-1.16 0-17.663 4.569-18.14 4.978-.136.205-3.069 9.479-6.41 20.663-6.411 21.209-7.979 24.823-12.616 28.915-2.933 2.523-7.638 4.978-12.48 6.41-2.932.887-6.615 1.091-17.048 1.023-7.365-.068-15.003-.341-17.049-.682zm35.802-10.979c3.683-1.978 7.433-5.729 8.593-8.661.681-1.773 8.66-28.437 11.661-38.939l1.636-5.796 9.82-2.524c5.388-1.364 12.003-3.273 14.594-4.16l4.774-1.636 5.523 5.251c3.205 3.069 8.184 6.887 12.139 9.206 8.32 4.978 9.547 6.41 8.933 10.57-.75 4.842-1.705 6.342-4.637 6.956-8.32 1.705-14.184 8.797-14.252 17.185-.069 4.296 1.295 6.615 4.569 8.183 5.932 2.864 26.595 3.205 32.392.614 5.728-2.523 8.865-6.819 12.957-17.867 2.318-6.41 6.819-23.936 6.819-26.8 0-1.091-.955-4.16-2.114-6.82-1.159-2.591-1.977-4.842-1.841-4.978.136-.136 2.387 1.159 4.978 2.864 6.547 4.228 16.912 9.07 26.05 12.071 4.228 1.432 8.388 3.137 9.343 3.887 1.705 1.364 5.456 8.319 6.206 11.593.409 1.5.068 1.909-2.251 2.932-10.57 4.774-13.229 19.299-4.501 24.414 3.001 1.773 12.821 2.796 22.095 2.386 9.616-.477 12.48-1.363 16.094-4.978 5.729-5.728 6.547-13.639 3.069-30.278-2.25-10.706-6.888-27.21-8.933-31.847-.819-1.909-2.387-3.614-4.501-5.114-11.593-7.911-15.003-14.73-21.072-41.803-1.637-7.502-3.205-14.253-3.41-15.003-.409-1.296-.068-1.364 12.411-1.364 11.252 0 13.435-.205 18.14-1.569 14.253-4.091 23.936-10.979 31.847-22.64 1.432-2.046 5.387-9.343 8.865-16.23 8.865-17.526 13.366-22.163 21.549-22.095 4.092 0 5.524.682 9.82 4.228 6.752 5.524 10.843 6.478 16.299 3.614 2.796-1.432 4.091-2.659 5.319-4.91 6.137-11.661-6.274-26.937-24.073-29.528-14.048-2.046-29.187 5.387-38.87 18.958-1.705 2.319-5.524 9.411-8.525 15.685-3 6.205-6.615 13.093-8.047 15.207-8.387 12.275-20.526 17.799-37.302 16.844-11.798-.682-22.64-4.501-29.937-10.638-11.389-9.684-26.732-12.889-51.487-10.98-5.455.41-16.639.955-24.891 1.16l-15.003.341 8.252-4.024c9.206-4.501 13.707-7.297 27.891-17.185 12.071-8.456 18.754-12.411 26.119-15.412 10.638-4.432 11.934-4.569 41.394-4.705 21.686-.068 27.687-.273 32.392-1.228 21.345-4.159 37.575-12.616 52.373-27.414 9.889-9.956 10.025-11.32 1.16-12.275-5.183-.545-15.549-3-20.049-4.841-2.046-.819-2.728-1.432-2.524-2.25 1.16-3.751 3.274-19.914 3.41-25.642.068-9.002-.409-9.138-8.524-1.432-11.934 11.389-25.232 18.617-39.826 21.618-5.592 1.159-19.231 1.159-34.506 0-10.229-.819-14.116-.819-20.117-.205-19.027 2.114-34.098 9.07-50.055 23.254-2.796 2.455-10.297 9.547-16.708 15.753-6.342 6.206-13.911 13.162-16.775 15.48-4.706 3.683-14.867 10.434-15.753 10.434-.205 0-.546-1.841-.819-4.16-.682-7.024-3.75-20.867-6.205-28.437-1.296-3.955-2.251-7.297-2.183-7.297.069-.068 1.773-1.227 3.683-2.659 9.07-6.479 16.503-18.276 18.071-28.505 2.524-16.98-7.637-32.325-23.39-35.325-2.046-.41-5.047-.546-6.751-.273-7.638 1.091-17.39 6.342-25.164 13.57-2.319 2.047-4.296 3.752-4.569 3.752-.205 0-2.864-1.228-5.933-2.66-23.05-11.116-56.329-10.911-80.128.34-5.661 2.729-4.433 3.138-12.275-3.614-5.251-4.432-11.321-7.978-16.708-9.82-6.001-2.045-14.321-1.636-19.776.887-7.911 3.75-14.458 12.616-16.231 22.027-2.455 13.298 4.91 29.8 17.322 39.007 2.318 1.705 4.296 3.137 4.364 3.205.137.137-.682 2.864-1.841 6.138-5.797 17.253-9.274 43.917-6.41 49.918 1.432 2.932 9.615 10.775 15.275 14.457 2.455 1.569 7.502 4.433 11.32 6.342l6.888 3.41-1.637 3.137c-2.796 5.524-1.704 13.093 2.319 16.776 1.296 1.091 1.296 1.5.477 6.137-.477 2.66-.886 6.615-.886 8.661-.068 9.274 7.16 16.776 19.64 20.185l4.16 1.16 1.773 5.523c6.001 18.89 9.752 39.689 10.297 56.874l.409 12.412h-2.728c-5.66 0-11.729 3.273-14.866 8.047-2.319 3.546-3.955 10.502-3.41 14.32.614 4.297 3.615 7.229 8.456 8.252 1.978.409 9.616.75 16.981.818 14.593 0 17.253-.477 21.754-3.887 4.023-3.069 6.274-6.956 9.07-15.753 2.796-8.66 6.751-25.777 8.251-35.12.478-3.341 1.091-5.319 1.637-5.319.477 0 2.182.477 3.819 1.023 5.046 1.773 16.025 4.433 23.663 5.66l7.297 1.228.205 11.388.136 11.32-1.841.41c-4.978 1.091-8.252 2.796-11.184 5.796-3.819 3.887-5.388 8.115-5.388 14.389 0 4.228.205 4.91 2.046 6.956 1.91 2.182 4.433 3.273 9.548 4.16.954.136 7.842.204 15.343.136 13.366-.068 13.707-.068 17.117-1.909z" fill="#F4EBCC"/><path d="M333.886 294.066c-26.46-4.637-49.782-15.753-64.512-30.688-4.433-4.5-11.798-14.184-11.184-14.798.136-.136 3.001.137 6.274.614 17.117 2.523 40.576-.068 58.511-6.479 3.75-1.363 7.092-2.523 7.433-2.659.341-.068 1.5 3.069 2.455 7.024 1.023 3.955 2.932 10.638 4.296 14.866 1.296 4.16 2.182 7.638 1.978 7.638-.273 0-1.364-1.432-2.387-3.205-1.023-1.705-2.046-3.001-2.182-2.864-.137.136.818 3.341 2.114 7.024 2.25 6.546 5.114 17.117 6.001 22.436.545 2.932 1.296 2.864-8.797 1.091zm58.988-.205c0-.204.818-3.614 1.773-7.706 1.023-4.023 1.978-10.433 2.25-14.116l.409-6.819 5.115-.819c2.796-.477 10.025-2.182 16.026-3.819 10.297-2.727 11.456-2.864 20.458-2.932 9.479 0 14.525.818 16.026 2.591.818.887 7.501 12.616 7.501 13.094 0 .136-1.159.477-2.523.682-8.729 1.432-14.594 3.205-35.325 10.911-13.298 4.91-31.71 10.093-31.71 8.933zM277.966 205.14c-.341-.136-1.909-.613-3.409-.954-1.569-.409-4.91-2.114-7.502-3.751-2.659-1.705-5.592-3.273-6.615-3.478-2.182-.545-6.069-4.637-7.978-8.32-4.296-8.456-4.637-19.026-.887-27.005 1.364-3.068 3.546-6.069 6.206-8.728 4.023-4.024 6.683-5.251 5.933-2.796-1.364 4.296 9.479 14.389 18.753 17.389.819.273.955 1.023.614 4.16-.477 4.433-2.114 6.956-5.728 8.797-4.16 2.182-7.911 2.25-12.207.273-3.955-1.773-6.41-4.433-8.593-9.343l-1.363-3.069v2.728c-.069 3.342 2.455 8.866 5.114 11.389 2.864 2.659 6.888 4.16 11.184 4.16 4.569 0 7.842-1.296 11.388-4.569l2.728-2.455L286.9 181c1.978 2.182 6.41 4.569 10.024 5.319 9.275 2.114 18.958-5.456 18.822-14.594-.068-2.659-.136-3-.545-1.705-1.023 3.274-2.728 5.933-5.456 8.388-4.978 4.501-11.798 4.91-17.049 1.16-3.341-2.455-4.841-5.183-4.841-8.729 0-2.66.068-2.66 5.114-5.183 4.978-2.455 11.934-8.047 13.434-10.911.478-.75.955-2.592 1.16-4.024l.409-2.659 4.228 3.887c7.911 7.16 11.729 17.867 9.752 27.346-1.501 7.297-7.843 17.321-10.911 17.321-.682 0-2.728 1.023-4.569 2.319-5.115 3.478-8.388 4.978-12.821 5.796-3.751.682-14.116.955-15.685.409zm46.509-59.67c-1.773-.341-5.251-1.5-7.638-2.659-4.296-1.978-4.432-2.114-4.432-4.569v-2.592l1.909 1.773c3.273 3.137 6.274 4.229 11.047 4.229 6.411 0 10.98-2.66 13.776-7.979 5.455-10.707-1.91-23.05-13.912-23.186-4.023 0-4.092-.068-2.182-1.023 1.023-.546 3.819-1.16 6.137-1.364 3.478-.273 4.842 0 7.979 1.432 7.57 3.478 12.411 10.57 12.411 18.276 0 3.819-.341 4.978-2.045 7.774-4.501 7.297-14.048 11.389-23.05 9.888zm-89.676-1.023c-3-.954-7.092-3.614-9.206-6.069-2.046-2.387-4.569-8.115-4.569-10.434 0-5.932 5.933-15.07 11.866-18.071 3.887-1.978 10.843-2.319 14.253-.75l2.591 1.227-3.955.069c-9.002.136-15.412 6.683-15.48 15.616 0 13.98 16.093 21.004 26.254 11.457l1.842-1.637.272 2.455c.341 2.864-.272 3.342-7.501 5.728-4.842 1.637-11.866 1.842-16.367.409zm366.477-.409c.545-.954 7.842-4.228 8.251-3.75.341.341-2.114 1.704-6.137 3.409-1.432.546-2.387.682-2.114.341z" fill="#F4EBCC"/><path d="M246.256 124.876c-1.773-1.91-1.773-4.91 0-6.683 2.251-2.251 5.115-2.046 7.365.409 1.841 2.114 1.91 3.682.068 6.001-1.841 2.319-5.387 2.455-7.433.273zm71.468.341c-1.773-2.046-2.114-4.228-.887-6.07 2.387-3.682 7.161-3.409 8.797.546 1.569 3.682-.409 6.683-4.364 6.683-1.569 0-2.932-.477-3.546-1.159zm-83.197-55.374c4.296-2.728 15.48-8.115 20.594-9.82 5.661-1.91 17.799-4.57 21.072-4.57 2.114 0 2.66.887 1.569 2.524-.273.41-3.069 1.16-6.206 1.569-3.069.409-6.342 1.022-7.228 1.363-.887.341-4.16 1.228-7.297 1.978-3.069.75-8.934 2.728-12.957 4.364-3.955 1.705-8.252 3.274-9.547 3.547l-2.251.409 2.251-1.364zm95.267-1.5c-11.047-4.979-19.913-7.502-30.687-8.866-5.183-.682-6.479-1.295-6.479-3.137 0-1.159 2.592-1.09 9.684.137 7.91 1.364 16.707 4.296 25.164 8.456 12.002 5.933 13.843 8.524 2.318 3.41zm-99.291-6.138c-9.001-7.365-17.117-10.57-25.573-10.024-5.523.34-9.206 2.114-14.525 6.955l-3.069 2.796 1.432-2.318c5.797-9.411 16.503-13.298 26.323-9.616 4.842 1.842 12.957 7.16 18.072 11.934 5.387 5.047 3.41 5.251-2.66.273zm104.133 3.546c-.477-.75 5.115-5.865 10.911-10.024 12.48-8.934 23.254-9.275 32.324-1.16 1.91 1.705 3.955 4.024 4.569 5.183 1.023 2.046.955 1.978-2.25-.818-5.592-4.978-9.275-6.479-15.617-6.479-8.456 0-15.684 3.274-27.755 12.548-.955.75-1.977 1.091-2.182.75z" fill="#F4EBCC"/><path d="M333.613 364.306c-7.229-1.228-12.343-4.501-15.617-10.093-1.704-2.932-1.841-3.682-1.841-10.979 0-7.57.068-8.047 2.319-12.616 2.728-5.592 7.365-10.434 12.275-12.889l3.478-1.773v-3.41c0-2.932-.205-3.409-1.501-3.75-.886-.137-5.046-1.091-9.274-2.114-4.228-.955-7.842-1.637-7.91-1.569-.137.137-1.228 4.91-2.455 10.502-5.865 27.346-10.639 37.371-20.254 42.485-7.638 4.024-10.161 4.365-28.028 4.092-18.276-.341-20.39-.818-25.573-5.319-4.433-3.887-6.206-8.456-6.206-15.685.069-12.411 6.888-22.981 17.595-26.937l3.341-1.295-.409-7.843c-.614-11.184-3.001-24.822-6.615-38.257-3.478-12.547-3.273-12.275-7.979-13.98-8.797-3.136-15.139-8.728-18.821-16.571-2.114-4.364-2.183-4.91-2.183-13.093 0-8.047-.136-8.729-2.045-12.616-1.773-3.614-1.978-4.842-1.978-10.025 0-5.66-.068-5.932-1.773-6.683-3.887-1.773-15.48-10.024-19.845-14.184-3.273-3.069-5.387-5.728-6.887-8.934-2.251-4.5-2.251-4.5-2.182-14.729.068-11.389 1.5-21.073 5.114-34.234l2.114-7.706-4.433-4.228c-10.57-10.297-16.844-25.232-15.957-38.325.887-13.707 7.774-25.641 18.481-32.052 8.456-5.046 17.867-6.683 27.005-4.569 5.523 1.296 15.343 6.274 20.731 10.639 2.591 2.046 4.978 3.75 5.251 3.75.204 0 2.591-.818 5.114-1.773 15.89-6.069 33.961-8.32 51.078-6.41 10.638 1.228 18.617 3.205 29.119 7.297l3.205 1.227 2.25-2.114c7.57-7.024 17.458-11.865 27.21-13.23 16.98-2.454 34.438 9.752 39.757 27.824 4.501 15.48-1.023 34.097-14.184 47.531l-4.433 4.501.955 3.205c.545 1.773 1.636 6.138 2.387 9.684.818 3.546 1.568 6.547 1.704 6.751.614.546 10.707-8.32 24.005-21.208 15.889-15.412 25.164-22.709 35.12-27.619 17.117-8.524 33.279-10.98 57.488-8.797 15.207 1.364 19.708 1.364 27.141.068 13.503-2.318 24.823-8.456 36.348-19.572 3.409-3.273 7.296-6.41 8.66-7.024 6.956-2.864 14.253.682 16.162 7.91.819 3.002 0 14.663-1.704 23.46-.478 2.66-.682 4.978-.478 5.25.614.614 11.934 2.592 15.071 2.592 7.297.068 13.093 6.615 12.139 13.775-.546 3.819-3.137 7.297-12.275 16.367-7.024 6.956-8.047 8.252-7.706 9.684l.409 1.704 4.296-1.977c11.934-5.388 22.641-5.933 34.711-1.705 14.935 5.115 25.709 19.708 24.209 32.529-.545 4.569-3.546 10.843-6.478 13.707-1.364 1.364-4.297 3.273-6.547 4.296-3.546 1.568-4.569 1.773-9.547 1.5-6.479-.341-10.093-1.773-15.071-5.933-6.615-5.455-9.206-3.546-17.526 13.571-9.002 18.549-15.889 27.619-26.187 34.575-10.638 7.228-25.3 11.797-37.984 11.797-3.478 0-3.955.137-3.614 1.228.204.613.818 3.478 1.432 6.273 3.955 19.163 8.115 27.892 15.207 32.12 7.092 4.228 8.797 7.297 13.775 24.891 8.661 30.619 9.07 44.804 1.569 54.624-4.024 5.319-7.774 7.774-14.185 9.479-8.183 2.182-27.823 1.773-35.188-.751-14.389-4.91-17.185-24.345-5.455-37.37 1.568-1.773 2.114-2.796 1.636-3.273-.613-.614-18.958-7.911-20.867-8.32-.341-.068-1.637 3.887-2.864 8.729-3.342 13.093-8.32 25.436-12.48 30.824-.886 1.227-3.478 3.478-5.66 4.91-5.251 3.478-11.116 4.841-21.208 4.841-15.412 0-23.528-1.977-28.437-6.887-5.729-5.66-6.684-16.162-2.387-25.096 2.182-4.432 7.637-10.161 11.388-11.934l2.66-1.227-5.115-3.274c-2.728-1.841-6.546-4.705-8.456-6.41-1.909-1.773-3.887-3.137-4.364-3.137-1.16 0-17.663 4.569-18.14 4.978-.136.205-3.069 9.479-6.41 20.663-6.411 21.209-7.979 24.823-12.616 28.915-2.933 2.523-7.638 4.978-12.48 6.41-2.932.887-6.615 1.091-17.048 1.023-7.365-.068-15.003-.341-17.049-.682zm34.165-10.161c3.819-1.432 8.115-5.046 9.684-8.047.955-1.909 3.478-9.684 7.57-24.004 3.273-11.184 3.477-11.798 4.91-17.322 1.432-5.319.545-4.705 11.047-7.228 3.546-.887 9.411-2.523 13.093-3.751l6.683-2.182 3.274 3.41c4.432 4.637 8.524 7.842 15.002 11.593 8.116 4.773 8.593 5.592 7.365 12.888-.477 2.796-.409 2.796-6.751 5.047-4.432 1.568-8.865 5.66-10.434 9.683-1.5 3.956-1.568 9.616-.068 11.866 2.387 3.614 9.547 5.251 22.914 5.319 16.366 0 21.003-3.819 26.936-22.163 3.001-9.343 5.933-21.413 5.933-24.413 0-1.296-.955-4.433-2.114-6.956-1.091-2.523-1.977-4.706-1.841-4.842.136-.136 2.114 1.023 4.296 2.523 6.683 4.501 16.776 9.275 25.914 12.275 4.705 1.569 9.274 3.41 10.229 4.16.887.682 2.523 3.205 3.683 5.524 3.273 6.887 3.273 6.955-.273 9.001-9.479 5.592-12.548 16.844-6.274 22.641 3.682 3.273 6.751 3.887 20.595 3.955 11.115 0 12.547-.136 15.002-1.432 5.047-2.523 5.933-3.342 7.502-6.478 3.137-6.07 3.478-13.23 1.091-24.482-.341-1.705-.955-4.569-1.296-6.479-2.182-10.57-7.228-26.868-9.274-30.005-.614-.887-2.864-2.864-5.047-4.365-2.182-1.432-5.114-3.955-6.546-5.523-4.433-4.91-8.525-15.344-11.661-29.665-1.91-8.661-4.297-19.094-4.774-20.799-.273-.887 1.432-1.023 12.479-1.023 13.571 0 16.776-.477 25.505-4.024 14.321-5.796 22.709-14.934 33.279-36.211 8.797-17.594 13.366-22.367 21.618-22.231 4.159 0 5.455.614 9.751 4.16 6.411 5.319 10.366 6.342 15.685 4.023 4.978-2.114 7.501-6.069 7.501-11.729 0-13.23-17.048-25.027-33.824-23.391-4.774.478-11.798 2.864-16.639 5.66-4.501 2.66-11.252 9.411-15.071 15.071-3.001 4.501-4.637 7.638-10.502 20.254-4.365 9.274-11.866 18.344-17.799 21.345-5.251 2.659-12.002 4.296-19.026 4.569-7.774.273-12.752-.409-20.254-2.728-8.183-2.591-9.888-3.478-14.048-7.16-4.569-4.092-14.321-9.07-20.936-10.639-5.523-1.364-24.209-1.841-35.802-.954-12.82 1.023-34.097 1.568-34.097.954 0-.341 3.205-2.114 7.092-3.955 7.502-3.478 16.844-9.206 28.028-17.185 14.048-10.093 25.164-15.753 36.143-18.481 4.16-1.091 7.706-1.227 27.278-1.022 13.298.068 25.164-.137 28.983-.614 24.004-2.728 42.007-11.32 58.851-27.96 6.07-6.069 7.979-8.32 7.979-9.683 0-1.978-.614-2.25-5.796-2.865-7.502-.886-12.685-2.046-19.504-4.5l-3.751-1.364 1.637-9.684c.887-5.32 1.637-12.889 1.705-16.844.204-9.41-.341-9.479-8.388-1.841-18.14 17.321-37.916 24.277-63.08 22.3-24.277-1.978-33.62-1.637-45.417 1.636-17.594 4.91-26.391 11.047-52.987 36.757-6.547 6.274-13.98 13.093-16.503 15.139-4.569 3.614-14.935 10.57-15.753 10.57-.205 0-.614-2.046-.887-4.637-.75-7.161-3.75-20.868-6.205-28.369-1.296-3.751-2.251-6.888-2.183-6.956 8.388-4.773 15.89-13.843 19.913-23.8 1.705-4.228 1.978-5.592 1.978-12.275 0-8.388-1.159-12.48-5.251-18.548-7.092-10.57-20.936-14.935-32.324-10.298-5.115 2.182-12.821 7.092-17.117 10.98-5.66 5.114-4.842 4.978-11.184 1.909-18.208-8.797-45.281-10.775-66.148-4.91-5.661 1.636-13.639 4.705-16.844 6.615-2.251 1.364-1.773 1.568-9.479-4.978-9.002-7.57-17.322-11.252-25.778-11.184-7.501 0-13.025 2.455-18.685 8.183-10.229 10.434-11.661 26.118-3.683 40.644 2.66 4.91 8.661 11.593 13.366 14.866 2.796 1.978 3.888 3.137 3.615 3.887-4.91 12.548-8.456 29.869-9.002 43.781-.341 8.729-.273 9.411 1.091 11.729 3.956 6.342 16.708 15.89 28.983 21.618l4.364 2.046-1.705 3c-1.295 2.319-1.704 4.024-1.636 7.093 0 4.432 1.023 7.024 3.682 9.479 1.637 1.568 1.637 1.568.75 6.478-1.432 7.57-1.227 12.207.682 16.094 3.205 6.274 9.479 10.57 19.299 13.23 2.796.75 3.001.954 4.228 4.91 6.888 21.14 11.389 47.463 10.843 63.42l-.204 6.82-3.546.409c-9.411 1.159-15.822 7.91-16.981 17.867-.682 5.455.887 9.274 4.569 11.32 2.455 1.432 4.16 1.637 15.139 2.182 16.776.819 21.754.137 27.414-3.682 2.796-1.91 6.07-6.274 7.502-9.888 3-7.775 8.047-28.642 9.888-40.849.477-3.137 1.091-5.66 1.296-5.66.272 0 3.546.887 7.297 1.978 6.546 1.977 21.753 5.319 25.845 5.66l2.046.204.205 11.321.136 11.388-3.546.819c-4.978 1.159-9.547 4.364-12.071 8.456-4.978 8.251-4.159 17.73 1.774 20.526 3.818 1.841 7.569 2.251 21.14 2.319 11.525.068 13.57-.068 16.707-1.296z" fill="#FEFEFD"/><path d="M237.595 144.788c-8.728-1.773-15.889-9.342-15.889-16.912 0-6.887 4.16-13.843 10.638-17.594 3.819-2.25 10.366-2.932 13.912-1.5l2.387 1.023-3.683.477c-6.751.887-10.638 3.683-13.434 9.616-3.682 7.774-.545 16.434 7.365 20.39 4.91 2.455 8.729 2.318 14.048-.341 2.319-1.16 4.228-2.387 4.228-2.728 0-.341.341-.614.682-.614.409 0 .682.887.682 1.978 0 1.705-.477 2.114-4.16 3.75-3.341 1.433-11.866 3.342-13.57 3.069-.205-.068-1.637-.341-3.206-.614zm85.516 0c-1.364-.409-4.296-1.5-6.478-2.523-3.205-1.568-3.956-2.25-4.092-3.75-.205-2.319.136-2.387 2.114-.478 3.955 3.819 11.525 5.115 16.708 2.933 1.364-.546 3.546-1.978 4.773-3.206 3.41-3.273 4.569-6.273 4.569-11.797 0-4.16-.273-5.251-2.046-8.184-2.864-4.569-7.842-7.296-13.502-7.296-3.955 0-4.024-.069-2.114-1.023 1.023-.546 3.819-1.16 6.206-1.364 3.614-.273 4.773-.068 7.978 1.5 4.706 2.319 8.115 5.797 10.639 10.911 2.318 4.637 2.455 6.206.954 11.321-1.5 4.978-6.683 10.16-11.865 11.865-4.569 1.501-10.366 1.91-13.844 1.091z" fill="#FEFEFD"/><path d="M246.392 124.808c-3-3.206-.886-7.979 3.615-7.979 2.455 0 5.114 2.455 5.114 4.773 0 .682-.613 1.978-1.432 3.001-1.841 2.319-5.251 2.455-7.297.205zm71.605.477c-1.91-1.364-2.114-5.66-.273-7.297 1.909-1.705 5.933-1.5 7.228.341 1.501 2.046 1.364 5.524-.136 6.888-1.569 1.432-4.842 1.5-6.819.068z" fill="#FEFEFD"/></svg>